<?xml version="1.0" encoding="UTF-8" standalone="no"?>
<!DOCTYPE svg PUBLIC "-//W3C//DTD SVG 1.1//EN" "http://www.w3.org/Graphics/SVG/1.1/DTD/svg11.dtd">
<svg width="100%" height="100%" viewBox="0 0 55 49" version="1.1" xmlns="http://www.w3.org/2000/svg" xmlns:xlink="http://www.w3.org/1999/xlink" xml:space="preserve" xmlns:serif="http://www.serif.com/" style="fill-rule:evenodd;clip-rule:evenodd;stroke-linejoin:round;stroke-miterlimit:2; fill: white;">
    <g transform="matrix(1,0,0,1,-483.386,-695.072)">
        <g transform="matrix(0.582668,0,0,0.662745,179.326,423.113)">
            <g transform="matrix(1.32389,0,0,1,-169.017,0)">
                <path d="M592.711,415.338C592.711,412.586 590.791,410.352 588.427,410.352L526.125,410.352C523.761,410.352 521.841,412.586 521.841,415.338C521.841,418.089 523.761,420.323 526.125,420.323L588.427,420.323C590.791,420.323 592.711,418.089 592.711,415.338Z"/>
            </g>
            <g transform="matrix(1.32389,0,0,1,-169.017,21.0317)">
                <path d="M592.711,415.338C592.711,412.586 590.791,410.352 588.427,410.352L526.125,410.352C523.761,410.352 521.841,412.586 521.841,415.338C521.841,418.089 523.761,420.323 526.125,420.323L588.427,420.323C590.791,420.323 592.711,418.089 592.711,415.338Z"/>
            </g>
            <g transform="matrix(1.32389,0,0,1,-169.017,42.0634)">
                <path d="M592.711,415.338C592.711,412.586 590.791,410.352 588.427,410.352L526.125,410.352C523.761,410.352 521.841,412.586 521.841,415.338C521.841,418.089 523.761,420.323 526.125,420.323L588.427,420.323C590.791,420.323 592.711,418.089 592.711,415.338Z"/>
            </g>
            <g transform="matrix(0.661943,0,0,1,223.324,63.0951)">
                <path d="M592.711,415.338C592.711,412.586 588.872,410.352 584.144,410.352L530.408,410.352C525.68,410.352 521.841,412.586 521.841,415.338C521.841,418.089 525.68,420.323 530.408,420.323L584.144,420.323C588.872,420.323 592.711,418.089 592.711,415.338Z"/>
            </g>
        </g>
    </g>
</svg>
