<?xml version="1.0" encoding="UTF-8" standalone="no"?>
<!DOCTYPE svg PUBLIC "-//W3C//DTD SVG 1.1//EN" "http://www.w3.org/Graphics/SVG/1.1/DTD/svg11.dtd">
<svg width="100%" height="100%" viewBox="0 0 82 76" version="1.1" xmlns="http://www.w3.org/2000/svg" xmlns:xlink="http://www.w3.org/1999/xlink" xml:space="preserve" xmlns:serif="http://www.serif.com/" style="fill-rule:evenodd;clip-rule:evenodd;stroke-linejoin:round;stroke-miterlimit:2;">
    <g transform="matrix(1,0,0,1,-894.14,-808.798)">
        <path d="M894.14,837.623L894.14,811.798C894.14,810.775 894.66,809.824 895.521,809.272C896.381,808.72 897.464,808.645 898.393,809.072C912.436,815.527 957.357,836.174 973.598,843.639C974.663,844.129 975.345,845.193 975.345,846.365C975.345,847.537 974.663,848.602 973.598,849.091C957.357,856.556 912.436,877.203 898.393,883.659C897.464,884.086 896.381,884.01 895.521,883.458C894.66,882.907 894.14,881.955 894.14,880.933L894.14,855.399L934.742,846.511L894.14,837.623Z"/>
    </g>
</svg>
