<svg xmlns="http://www.w3.org/2000/svg" fill-rule="evenodd" stroke-linecap="round" stroke-linejoin="round" stroke-miterlimit="1.5" clip-rule="evenodd">
  <symbol id="guy" viewBox="0 0 533 837">
    <path id="head-skin" fill="#eac9b8" d="M339.709 253.566c-3.459 15.977-4.446 29.978 2.809 37.383l11.239 35.267-24.924 71.772-83.448 20.144-50.574-90.311 12.443-59.003c-7.571-15.921-11.967-31.842-15.253-47.764-17.402-18.782-19.996-39.903-19.519-61.508a3.33 3.33 0 015.794-2.169c5.943 6.478 9.684 15.159 10.113 27.152l-4.014-59.003c13.702-40.827 39.008-49.128 75.651-46.272 40.82 3.181 86.539-6.175 82.091 92.029 2.522-9.256 5.253-16.015 8.258-19.478a3.44 3.44 0 015.778.933c5.845 15.267 5.565 42.507-11.226 59.085l-5.218 41.743"/>
    <path id="hair" fill="#4e2e21" d="M175.161 156.349l-12.579-82.32a24.727 24.727 0 012.114-14.36C191.439 3.563 239.277-6.732 281.509 3.507c41.328 10.019 69.054 34.396 71.847 85.092l-1.34 62.153c-.627.182-1.2.543-1.641 1.053-3.005 3.463-5.736 10.222-8.258 19.478 4.448-98.204-41.271-88.848-82.091-92.029-36.643-2.856-61.949 5.445-75.651 46.272l3.751 55.142c.127 1.248.215 2.534.263 3.861l-.263-3.861c-1.021-10.026-4.565-17.529-9.85-23.291a3.33 3.33 0 00-3.115-1.028z"/>
    <g id="nose">
      <path fill="#4e2e21" d="M246.521 207.157c3.676-.91 6.752-.279 8.844 1.641l.043.057.043.711c-4.207 2.594-7.685 3.168-8.93-2.409zM273.348 212.317l.623-.589c.802-.947 1.721-2.026 2.781-3.267 1.556.474 2.85 1.111 4 1.737l.522.196c-1.645 3.496-4.268 4.26-7.926 1.923z"/>
      <path fill="#f2e0d7" d="M259.028 213.118c3.876-3.093 8.1-2.827 12.607.612-1.784 1.237-3.944 1.866-6.167 1.802a10.58 10.58 0 01-6.44-2.414z"/>
    </g>
    <g id="eye-right">
      <g id="eye-socket" fill="#4e2e21">
        <path d="M312.203 161.147c2.143 1.195 4.156 2.83 5.995 4.982a68 68 0 01-6.688.606 7.42 7.42 0 00.947-3.576l-.254-2.012zM284.501 162.527l-.052.356a6.865 6.865 0 00.675 3.101c-1.699-.045-3.27-.003-4.688.145 0-.755 1.547-2.181 4.065-3.602z"/>
      </g>
      <g id="eye-ball">
        <g id="eye-white" fill="#fff">
          <path d="M309.552 159.833l2.651 1.314.254 2.012a7.42 7.42 0 01-.947 3.576c-3.559.195-7.034.166-10.347.042 3.248-.398 5.732-2.904 5.732-5.928 0-.701-.133-1.373-.401-1.982l3.058.966zM293.904 158.968a4.797 4.797 0 00-.367 1.881c0 2.81 2.146 5.174 5.028 5.806-4.987-.248-9.557-.641-13.441-.671a6.865 6.865 0 01-.675-3.101l.052-.356c2.409-1.367 5.703-2.742 9.403-3.559z"/>
        </g>
        <path id="eye-black" d="M293.656 159.787l.248-.819c3.931-.875 8.319-1.13 12.59-.101l.278.884.123 1.098-.13 1.161-.116.371-.246.711-.227.419-.339.561-.343.422-.395.431-.474.409-.402.298-.631.378-.345.169-.82.32-.216.06-1.048.218-2.598-.122a6.298 6.298 0 01-1.725-.645l-.284-.139-.389-.27-.558-.415-.32-.309-.471-.515-.258-.349-.363-.601-.186-.372-.247-.715-.1-.347-.127-1.129.119-1.062z"/>
      </g>
    </g>
    <path id="beard" fill="#4e2e21" d="M278.445 228.344c0-2.714 2.2-4.914 4.914-4.914h5.503c7.497-.72 29.925-5.478 28.279 17.186-.545 7.493-.755 7.24 1.137 16.414 7.798-12.337 25.057-40.205 28.178-49.966 0 0 .431-1.347 0 0l-5.998 41.374-28.097 44.813c-29.44 24.699-57.258 25.608-83.487 3.212l-29.108-35.723-5.619-28.302c5.538 13.871 12.885 26.613 26.998 35.125.866.342 1.73.673 2.592.992l-3.556-20.117c-8.168-24.523 13.439-23.231 24.404-25.008l8.223.481a5.103 5.103 0 014.803 5.254v.002a3.376 3.376 0 01-3.374 3.271h-26.719c-.051 17.4 2.018 39.342 17.067 39.963 21.412-9.233 36.82-7.652 44.277-3.404 12.132 6.911 20.787-21.209 17.943-36.559h-24.268a4.089 4.089 0 01-2.893-1.199 4.089 4.089 0 01-1.199-2.893v-.002z"/>
    <path id="shirt" fill="#d1d2dd" d="M77.497 776.381c-18.289-4.126-36.814-9.495-55.581-16.136-40.29-248.766-41.519-398.845 141.708-433.298 10.561-1.985 34.631-24.933 42.691-40.814-8.496 28.306 26.769 94.451 67.385 107.953 35.629-20.621 60.575-53.451 68.872-105.308 14.075 2.474 10.592 32.119 23.572 33.198 186.07 15.472 184.595 228.963 143.345 420.699-18.716 4.081-36.737 7.127-53.909 9.28l-4.039 84.819-371.394-.665s-1.877-34.05-2.65-59.728z"/>
    <path id="hand-left" fill="#eac9b8" stroke="#000" stroke-width="1" d="M114.239 606.637l87.517 9.461-10.644 66.229-72.143-20.105-4.73-55.585z"/>
    <path id="hand-right" fill="#eac9b8" stroke="#000" stroke-width="1" d="M453.187 538.398a9.02 9.02 0 00-9.631-6.584c-33.905 3.409-61.528 40.859-73.86 91.38l75.69-3.548c13.017-3.768 25.494-11.582 37.386-23.788.414-5.206-.218-9.606-7.141-9.168-13.702 3.422-26.253 9.914-38.267 17.837 15.678-11.95 31.82-24.363 49.92-38.734a9.1 9.1 0 002.969-10.072c-1.181-3.395-4.148-5.493-9.725-5.706l-28.257 17.821 28.38-17.899a8.645 8.645 0 003.748-9.52c-1.008-3.815-4.481-5.389-11.555-3.689-18.181 7.653-32.989 21.631-46.667 37.727 4.643-13.345 20.147-21.376 26.836-34.368a2.37 2.37 0 00.167-1.687l.007-.002z"/>
    <path id="brow-left" fill="#4e2e21" d="M248.144 154.333l-1.811-6.667c-28.51-5.15-45.941-2.561-52.186 14.554 13.968-10.905 31.466-14.108 53.997-7.887z"/>
    <path id="brow-right" fill="#4e2e21" d="M274.309 145.291l3.532 7.501c18.816-7.936 36.462-7.004 50.992 3.045-10.653-24.27-54.152-15.757-54.524-10.546z"/>
    <g id="eye-socket1" fill="#4e2e21">
      <path d="M210.183 166.723c.195 2.223 1.252 4.267 2.959 5.919a76.747 76.747 0 01-7.715-1.525c1.607-1.629 3.19-3.1 4.756-4.394zM238.426 163.34c1.378 1.168 2.703 2.556 3.992 4.181l-4.563 2.507a8.4 8.4 0 001.034-3.963 7.472 7.472 0 00-.463-2.725z"/>
    </g>
    <path id="eye-white1" fill="#fff" d="M210.183 166.723c10.569-8.894 20.03-10.354 28.243-3.383.329.875.472 1.787.463 2.725a8.4 8.4 0 01-1.034 3.963l-3.385 1.86a42.936 42.936 0 01-3.772.751c2.229-1.052 3.756-3.247 3.756-5.776 0-3.607-3.108-6.535-6.936-6.535s-6.935 2.928-6.935 6.535c0 3.055 2.228 5.622 5.23 6.313-4.016.281-8.23.106-12.671-.534-1.71-1.618-2.803-3.668-2.959-5.919z"/>
    <path id="collar" fill="#858693" d="M183.949 313.503c9.053-8.228 18.028-18.823 22.366-27.37-8.496 28.306 26.769 94.451 67.385 107.953 35.629-20.621 60.575-53.451 68.872-105.308 14.075 2.474 10.592 32.119 23.572 33.198l1.448.147c.579 19.528 6.214 41.311 14.606 65.987-18.583-1.208-35.194-8.347-46.666-27.333-18.789 19.586-49.622 22.399-69.516 45.333l5.579-9.007c-23.056-12.462-40.834-25.512-54.73-38.993l-40 28 7.084-72.607z"/>
    <path id="shirt-line" fill="none" stroke="#000" stroke-width="1" d="M270.998 400.591c-4.759 4.178-9.634 9.549-10.231 15.459-9.625 95.343-8.457 114.098-7.002 120.426"/>
    <path id="eye-black1" d="M228.916 160.461c3.161.612 5.538 3.248 5.538 6.402l-.245 1.632-.14.424-.559 1.179-.159.275-1.093 1.238-.123.096-1.437.932-2.913.399-1.972.138a6.766 6.766 0 01-1.963-.787l-.124-.064-.441-.32-.544-.423-.349-.353-.475-.543-.275-.388-.372-.646-.196-.409-.255-.774-.105-.378-.131-1.228c0-3.607 3.107-6.535 6.935-6.535l1.398.133z"/>
    <g id="mouth">
      <path id="lip" fill="#ec9e9d" d="M300.047 236.015l.292-.007c-22.116 31.194-44.233 34.047-66.309 2.757 25.701 16.363 47.15 12.208 66.017-2.75z"/>
      <path id="teeth" fill="#fff" d="M288.536 236.272l-.238 4.123c-15.208 5.541-33.3 9.142-44.623-3.118l44.861-1.005z"/>
    </g>
  </symbol>
</svg>
