<?xml version="1.0" encoding="UTF-8" standalone="no"?>
<!DOCTYPE svg PUBLIC "-//W3C//DTD SVG 1.1//EN" "http://www.w3.org/Graphics/SVG/1.1/DTD/svg11.dtd">
<svg width="100%" height="100%" viewBox="0 0 1920 1426" version="1.1" xmlns="http://www.w3.org/2000/svg" xmlns:xlink="http://www.w3.org/1999/xlink" xml:space="preserve" xmlns:serif="http://www.serif.com/" style="fill-rule:evenodd;clip-rule:evenodd;stroke-linecap:round;stroke-linejoin:round;stroke-miterlimit:1.5;">
    <g id="Artboard1" transform="matrix(1,0,0,1.31963,0,0)">
        <rect x="0" y="0" width="1920" height="1080" style="fill:none;"/>
        <g transform="matrix(1,0,0,1,-114.889,-77.4578)">
            <g>
                <g transform="matrix(1,0,0,0.757788,-363.645,-63.4526)">
                    <path d="M807.261,642.616C807.261,642.616 797.132,576.333 793.749,554.192C793.002,549.301 793.738,544.299 795.864,539.832C822.606,483.726 870.445,473.431 912.676,483.669C954.004,493.689 981.731,518.066 984.523,568.762L982.516,661.882C915.968,678.538 837.089,730.197 807.261,642.616Z" style="fill:rgb(78,46,33);"/>
                </g>
                <g transform="matrix(1,0,0,0.757788,-363.645,-63.4526)">
                    <path d="M970.876,733.729C967.417,749.706 966.43,763.706 973.686,771.112L984.924,806.378L960,878.15L876.552,898.294L825.978,807.984L838.421,748.981C830.851,733.06 826.454,717.138 823.169,701.217C805.766,682.435 803.173,661.314 803.65,639.709C803.678,638.346 804.534,637.137 805.811,636.659C807.088,636.181 808.527,636.53 809.444,637.54C815.386,644.018 819.127,652.698 819.556,664.691L815.542,605.689C829.244,564.862 854.551,556.56 891.193,559.416C932.014,562.598 977.733,553.242 973.284,651.446C975.807,642.19 978.537,635.431 981.542,631.967C982.322,631.065 983.514,630.632 984.691,630.822C985.869,631.012 986.863,631.799 987.32,632.901C993.165,648.167 992.885,675.407 976.094,691.985L970.876,733.729" style="fill:rgb(234,201,184);"/>
                </g>
                <g transform="matrix(1,0,0,0.757788,-363.645,-63.4526)">
                    <path d="M877.622,687.096C878.835,692.912 882.351,692.36 886.619,689.729L886.29,684.308L877.622,687.096Z" style="fill:rgb(78,46,33);"/>
                </g>
                <g transform="matrix(1,0,0,0.757788,-363.645,-63.4526)">
                    <path d="M903.229,691.629C905.891,683.054 909.444,683.389 913.422,687.969C911.73,694.093 908.428,695.589 903.229,691.629" style="fill:rgb(78,46,33);"/>
                </g>
                <g transform="matrix(1,0,0,0.757788,-363.645,-63.4526)">
                    <path d="M911.604,646.292C920.209,645.393 934.423,648.39 949.365,646.292C935.466,630.023 911.604,643.325 911.604,646.292Z" style="fill:rgb(78,46,33);"/>
                    <clipPath id="_clip1">
                        <path d="M911.604,646.292C920.209,645.393 934.423,648.39 949.365,646.292C935.466,630.023 911.604,643.325 911.604,646.292Z"/>
                    </clipPath>
                    <g clip-path="url(#_clip1)">
                        <g transform="matrix(1.29798,0.0127831,-0.0116308,1.18099,-171.736,-132.883)">
                            <ellipse cx="854.319" cy="647.888" rx="10.789" ry="8.786" style="fill:white;"/>
                        </g>
                        <ellipse cx="931.384" cy="641.011" rx="6.679" ry="6.015"/>
                    </g>
                </g>
                <g transform="matrix(1,0,0,0.757788,-360.285,-64.011)">
                    <path d="M860.916,718.413L928.147,716.908C905.737,748.516 883.327,751.025 860.916,718.413Z" style="fill:none;"/>
                    <clipPath id="_clip2">
                        <path d="M860.916,718.413L928.147,716.908C905.737,748.516 883.327,751.025 860.916,718.413Z"/>
                    </clipPath>
                    <g clip-path="url(#_clip2)">
                        <path d="M857.669,716.908C886.413,737.266 909.894,732.309 930.418,714.853C930.313,729.395 915.384,742.234 884.59,749.104L857.669,716.908" style="fill:rgb(236,158,157);"/>
                        <g transform="matrix(1,0,0,0.884845,0,82.0598)">
                            <path d="M869.947,712.6L870.867,718.19C882.161,732.902 900.627,728.8 916.106,722.427L916.608,712.6L869.947,712.6Z" style="fill:white;"/>
                        </g>
                    </g>
                </g>
                <g transform="matrix(1,0,0,0.757788,-363.645,-63.4526)">
                    <path d="M909.613,708.507C909.613,705.793 911.813,703.593 914.527,703.593L920.029,703.593C927.526,702.873 949.954,698.115 948.308,720.779C947.764,728.272 947.553,728.019 949.446,737.193C957.243,724.855 974.502,696.988 977.624,687.226L978.047,684.308C978.216,684.877 978.055,685.879 977.624,687.226L971.625,728.6L943.528,773.414C914.088,798.113 886.27,799.022 860.042,776.625L830.934,740.902L825.314,712.6C830.853,726.472 838.199,739.213 852.313,747.726C853.178,748.068 854.042,748.398 854.905,748.718L851.349,728.6C843.181,704.077 864.787,705.37 875.753,703.593C875.753,703.593 880.238,703.855 883.975,704.074C886.735,704.235 888.865,706.565 888.779,709.328C888.779,709.329 888.779,709.329 888.779,709.33C888.722,711.152 887.228,712.6 885.404,712.6C877.628,712.6 858.686,712.6 858.686,712.6C858.634,730.001 860.703,751.943 875.753,752.563C897.165,743.33 912.572,744.912 920.029,749.16C932.162,756.071 940.817,727.95 937.973,712.6L913.705,712.6C912.619,712.6 911.579,712.169 910.811,711.402C910.044,710.634 909.613,709.594 909.613,708.508C909.613,708.508 909.613,708.507 909.613,708.507Z" style="fill:rgb(78,46,33);"/>
                </g>
                <g transform="matrix(1,0,0,0.757788,-363.645,-63.4526)">
                    <path d="M708.806,1229.1C706.924,1236.62 711.314,1316.27 711.314,1316.27L1082.71,1316.94L1090.36,1156.17C1090.36,1156.17 710.687,1221.57 708.806,1229.1Z" style="fill:rgb(209,210,221);"/>
                </g>
                <g id="Shirt" transform="matrix(1,0,0,0.757788,-363.645,-63.4526)">
                    <path d="M836.711,766.295C828.651,782.177 804.581,805.124 794.02,807.11C610.792,841.563 612.022,991.642 652.312,1240.41C762.886,1279.54 865.044,1274.49 960,1231.62C1002.76,1238.91 1065.89,1238.98 1139.88,1222.84C1181.13,1031.1 1182.61,817.611 996.539,802.139C983.56,801.059 987.043,771.414 972.967,768.941C964.671,820.798 939.725,853.628 904.096,874.248C863.479,860.746 828.215,794.602 836.711,766.295Z" style="fill:rgb(209,210,221);"/>
                    <clipPath id="_clip3">
                        <path d="M836.711,766.295C828.651,782.177 804.581,805.124 794.02,807.11C610.792,841.563 612.022,991.642 652.312,1240.41C762.886,1279.54 865.044,1274.49 960,1231.62C1002.76,1238.91 1065.89,1238.98 1139.88,1222.84C1181.13,1031.1 1182.61,817.611 996.539,802.139C983.56,801.059 987.043,771.414 972.967,768.941C964.671,820.798 939.725,853.628 904.096,874.248C863.479,860.746 828.215,794.602 836.711,766.295Z"/>
                    </clipPath>
                    <g clip-path="url(#_clip3)">
                        <path d="M896.411,886.273C916.305,863.338 947.138,860.525 965.927,840.939C977.399,859.926 994.01,867.065 1012.59,868.273C1000.16,831.709 993.778,801.499 1000.86,775.606L978.594,753.606L896.411,886.273Z" style="fill:rgb(133,134,147);"/>
                        <path d="M815.261,784.273L807.261,866.273L847.261,838.273C861.485,852.073 879.778,865.421 903.636,878.15L907.584,874.409L847.927,766.801C828.976,747.541 818.212,753.754 815.261,784.273Z" style="fill:rgb(133,134,147);"/>
                    </g>
                </g>
                <g transform="matrix(1,0,0,0.757788,-363.645,-63.4526)">
                    <path d="M745.406,1086.8L832.924,1096.26L822.28,1162.49L750.137,1142.38L745.406,1086.8Z" style="fill:rgb(234,201,184);stroke:black;stroke-width:1px;"/>
                </g>
                <g transform="matrix(1,0,0,0.757788,-363.645,-63.4526)">
                    <path d="M1084.35,1018.56C1083.19,1014.31 1079.11,1011.52 1074.72,1011.98C1040.82,1015.39 1013.2,1052.84 1000.86,1103.36L1076.55,1099.81C1089.57,1096.04 1102.05,1088.23 1113.94,1076.02C1114.35,1070.82 1113.72,1066.41 1106.8,1066.85C1093.1,1070.28 1080.55,1076.77 1068.53,1084.69C1084.21,1072.74 1100.35,1060.33 1118.45,1045.95C1121.47,1043.57 1122.66,1039.53 1121.42,1035.88C1120.24,1032.49 1117.27,1030.39 1111.69,1030.18L1083.44,1048C1083.44,1048 1103.5,1035.35 1111.82,1030.1C1115.01,1028.09 1116.53,1024.23 1115.57,1020.58C1114.56,1016.76 1111.09,1015.19 1104.01,1016.89C1085.83,1024.54 1071.02,1038.52 1057.34,1054.62C1061.99,1041.27 1077.49,1033.24 1084.18,1020.25C1084.44,1019.73 1084.5,1019.13 1084.35,1018.56C1084.35,1018.56 1084.35,1018.56 1084.35,1018.56Z" style="fill:rgb(234,201,184);stroke:black;stroke-width:1px;"/>
                </g>
                <g transform="matrix(1,0,0,0.757788,-363.645,-63.4526)">
                    <path d="M879.311,634.496L877.5,627.829C848.99,622.678 831.559,625.268 825.314,642.382C839.282,631.477 856.78,628.275 879.311,634.496Z" style="fill:rgb(78,46,33);"/>
                </g>
                <g transform="matrix(1,0,0,0.757788,-363.645,-63.4526)">
                    <path d="M905.476,625.454L909.008,632.955C927.824,625.018 945.47,625.95 960,635.999C949.348,611.73 905.848,620.243 905.476,625.454Z" style="fill:rgb(78,46,33);"/>
                </g>
                <g transform="matrix(1,0,0,0.757788,-363.645,-63.4526)">
                    <path d="M902.166,880.754C897.406,884.932 892.531,890.303 891.934,896.212C882.309,991.555 883.478,1010.31 884.932,1016.64" style="fill:none;stroke:black;stroke-width:1px;"/>
                </g>
                <g transform="matrix(1,0,0,0.757788,-363.645,-63.4526)">
                    <path d="M873.585,647.683C863.366,634.807 850.923,636.755 836.594,651.28C847.311,653.953 856.976,654.172 865.637,652.05L873.585,647.683Z" style="fill:rgb(78,46,33);"/>
                    <clipPath id="_clip4">
                        <path d="M873.585,647.683C863.366,634.807 850.923,636.755 836.594,651.28C847.311,653.953 856.976,654.172 865.637,652.05L873.585,647.683Z"/>
                    </clipPath>
                    <g clip-path="url(#_clip4)">
                        <g transform="matrix(1.3356,0.0131535,-0.0124289,1.26202,-277.33,-182.798)">
                            <ellipse cx="854.319" cy="647.888" rx="10.789" ry="8.786" style="fill:white;"/>
                        </g>
                        <ellipse cx="858.686" cy="647.026" rx="6.936" ry="6.535"/>
                    </g>
                </g>
                <g transform="matrix(1,0,0,0.757788,-363.645,-63.4526)">
                    <path d="M873.307,688.96C878.924,686.119 883.656,686.321 886.533,688.96C886.533,688.96 887.279,689.957 888.366,691.407C890.325,694.022 893.37,695.6 896.636,695.694C899.901,695.788 903.032,694.388 905.139,691.891C905.941,690.944 906.859,689.864 907.92,688.624C909.476,689.098 910.769,689.735 911.919,690.361C913.631,691.294 915.724,691.17 917.313,690.041C918.902,688.911 919.708,686.975 919.389,685.052C918.325,678.079 916.067,674.948 913.626,672.404L901.714,667.023L873.307,689.099" style="fill:rgb(234,201,184);"/>
                    <clipPath id="_clip5">
                        <path d="M873.307,688.96C878.924,686.119 883.656,686.321 886.533,688.96C886.533,688.96 887.279,689.957 888.366,691.407C890.325,694.022 893.37,695.6 896.636,695.694C899.901,695.788 903.032,694.388 905.139,691.891C905.941,690.944 906.859,689.864 907.92,688.624C909.476,689.098 910.769,689.735 911.919,690.361C913.631,691.294 915.724,691.17 917.313,690.041C918.902,688.911 919.708,686.975 919.389,685.052C918.325,678.079 916.067,674.948 913.626,672.404L901.714,667.023L873.307,689.099"/>
                    </clipPath>
                    <g clip-path="url(#_clip5)">
                        <g transform="matrix(1,0,0,1,0.324638,2.71284)">
                            <path d="M886.619,693.826L905.496,693.826C898.556,686.705 892.243,686.479 886.619,693.826Z" style="fill:rgb(242,224,215);"/>
                        </g>
                    </g>
                </g>
            </g>
        </g>
    </g>
</svg>
