<svg xmlns="http://www.w3.org/2000/svg" fill-rule="evenodd" stroke-linecap="round" stroke-linejoin="round" stroke-miterlimit="1.5" clip-rule="evenodd" viewBox="0 0 1920 1426">
  <path id="Guy" fill="none" d="M0 0h1920v1425.2H0z"/>
  <path id="head-skin" fill="#eac9b8" d="M492.342 547.779c-3.459 15.977-4.446 29.978 2.81 37.383l11.238 35.267-24.924 71.772-83.448 20.144-50.574-90.311 12.443-59.002c-7.57-15.922-11.967-31.843-15.253-47.765-17.402-18.782-19.995-39.902-19.518-61.508a3.328 3.328 0 015.793-2.169c5.943 6.478 9.684 15.159 10.113 27.152l-4.014-59.003c13.702-40.827 39.008-49.128 75.651-46.272 40.821 3.181 86.539-6.175 82.091 92.029 2.522-9.256 5.253-16.015 8.258-19.478a3.438 3.438 0 015.778.933c5.845 15.267 5.565 42.507-11.226 59.085l-5.218 41.743"/>
  <path id="hair" fill="#4e2e21" d="M327.794 450.563l-12.579-82.321a24.735 24.735 0 012.114-14.36c26.743-56.106 74.582-66.4 116.813-56.162 41.328 10.019 69.055 34.396 71.847 85.092l-1.34 62.153c-.627.182-1.2.543-1.641 1.053-3.005 3.463-5.736 10.222-8.258 19.478 4.448-98.204-41.27-88.848-82.091-92.029-36.643-2.856-61.949 5.445-75.651 46.272l3.751 55.143c.127 1.247.215 2.533.263 3.86l-.263-3.86c-1.021-10.027-4.564-17.53-9.85-23.292a3.326 3.326 0 00-3.115-1.027z"/>
  <g id="nose">
    <path fill="#4e2e21" d="M399.154 501.37c3.677-.91 6.752-.279 8.845 1.641l.042.057.044.711c-4.208 2.594-7.685 3.168-8.931-2.409zM425.981 506.53l.623-.589c.803-.947 1.721-2.026 2.782-3.267 1.555.474 2.849 1.111 3.999 1.737l.522.196c-1.645 3.496-4.267 4.26-7.926 1.923z"/>
    <path fill="#f2e0d7" d="M411.662 507.331c3.875-3.093 8.099-2.826 12.606.612-1.783 1.238-3.944 1.866-6.167 1.802a10.576 10.576 0 01-6.439-2.414z"/>
  </g>
  <g id="eye-right">
    <g id="eye-socket" fill="#4e2e21">
      <path d="M464.836 455.36c2.143 1.195 4.156 2.83 5.995 4.982a67.973 67.973 0 01-6.688.606 7.417 7.417 0 00.947-3.576l-.254-2.012zM437.134 456.74l-.052.356a6.878 6.878 0 00.675 3.101c-1.699-.045-3.27-.003-4.688.145 0-.755 1.547-2.181 4.065-3.602z"/>
    </g>
    <g id="eye-ball">
      <g id="eye-white" fill="#fff">
        <path d="M462.185 454.047l2.651 1.313.254 2.012a7.417 7.417 0 01-.947 3.576c-3.559.196-7.034.166-10.347.042 3.249-.398 5.732-2.904 5.732-5.928 0-.701-.133-1.373-.401-1.982l3.058.967zM446.537 453.181a4.797 4.797 0 00-.367 1.881c0 2.811 2.146 5.174 5.028 5.806-4.987-.248-9.557-.641-13.441-.671a6.878 6.878 0 01-.675-3.101l.052-.356c2.409-1.366 5.704-2.742 9.403-3.559z"/>
      </g>
      <path id="eye-black" d="M446.289 454l.248-.819c3.931-.875 8.319-1.129 12.59-.101l.278.884.123 1.098-.13 1.161-.116.371-.246.711-.227.419-.339.561-.342.422-.396.431-.474.409-.402.298-.63.378-.346.169-.82.32-.216.06-1.048.218-2.598-.122a6.298 6.298 0 01-1.725-.645l-.284-.139-.389-.27-.557-.415-.321-.309-.471-.515-.258-.349-.363-.601-.186-.372-.246-.715-.101-.346-.127-1.13.119-1.062z"/>
    </g>
  </g>
  <path id="beard" fill="#4e2e21" d="M431.078 522.557c0-2.714 2.2-4.914 4.914-4.914h5.503c7.497-.719 29.925-5.478 28.279 17.186-.544 7.493-.755 7.24 1.138 16.415 7.797-12.338 25.056-40.206 28.178-49.967 0 0 .431-1.347 0 0l-5.999 41.374-28.097 44.814c-29.44 24.698-57.258 25.607-83.487 3.211l-29.108-35.723-5.619-28.302c5.539 13.871 12.885 26.613 26.998 35.125.866.342 1.73.673 2.593.993l-3.557-20.118c-8.167-24.523 13.439-23.231 24.405-25.008l8.222.481a5.105 5.105 0 014.804 5.255l-.001.001a3.375 3.375 0 01-3.374 3.271h-26.718c-.052 17.4 2.017 39.342 17.067 39.963 21.412-9.233 36.819-7.652 44.276-3.404 12.132 6.911 20.788-21.209 17.943-36.559H435.17a4.089 4.089 0 01-2.893-1.199 4.089 4.089 0 01-1.199-2.893v-.002z"/>
  <path id="shirt" fill="#d1d2dd" d="M230.13 1070.6c-18.288-4.127-36.813-9.496-55.581-16.137-40.29-248.765-41.519-398.844 141.708-433.297 10.561-1.986 34.632-24.934 42.691-40.815-8.496 28.306 26.769 94.451 67.385 107.953 35.629-20.621 60.575-53.45 68.872-105.308 14.075 2.474 10.592 32.119 23.572 33.198 186.07 15.472 184.595 228.963 143.345 420.699-18.716 4.081-36.737 7.127-53.909 9.28l-4.039 84.82-371.394-.666s-1.877-34.05-2.65-59.727z"/>
  <path id="hand-left" fill="#eac9b8" stroke="#000" stroke-width="1" d="M266.872 900.85l87.517 9.461-10.644 66.23-72.143-20.106-4.73-55.585z"/>
  <path id="hand-right" fill="#eac9b8" stroke="#000" stroke-width="1" d="M605.82 832.611a9.02 9.02 0 00-9.63-6.584c-33.906 3.409-61.529 40.859-73.861 91.38l75.691-3.548c13.016-3.768 25.494-11.582 37.385-23.788.414-5.205-.218-9.606-7.141-9.168-13.702 3.422-26.253 9.914-38.267 17.837 15.678-11.95 31.82-24.363 49.92-38.734a9.1 9.1 0 002.97-10.071c-1.182-3.396-4.148-5.494-9.726-5.707l-28.257 17.821 28.381-17.899a8.646 8.646 0 003.747-9.52c-1.008-3.815-4.48-5.389-11.555-3.689-18.181 7.653-32.989 21.631-46.667 37.727 4.644-13.345 20.148-21.376 26.836-34.368a2.364 2.364 0 00.167-1.687l.007-.002z"/>
  <path id="brow-left" fill="#4e2e21" d="M400.777 448.546l-1.811-6.667c-28.51-5.15-45.941-2.56-52.186 14.554 13.968-10.905 31.466-14.108 53.997-7.887z"/>
  <path id="brow-right" fill="#4e2e21" d="M426.942 439.504l3.532 7.501c18.816-7.936 36.462-7.004 50.992 3.045-10.652-24.27-54.152-15.757-54.524-10.546z"/>
  <g id="eye-socket1" fill="#4e2e21">
    <path d="M362.816 460.936c.195 2.223 1.252 4.267 2.959 5.919a76.802 76.802 0 01-7.715-1.525c1.607-1.629 3.19-3.1 4.756-4.394zM391.059 457.553c1.378 1.168 2.703 2.556 3.992 4.181l-4.563 2.507a8.388 8.388 0 001.034-3.963 7.451 7.451 0 00-.463-2.725z"/>
  </g>
  <path id="eye-white1" fill="#fff" d="M362.816 460.936c10.57-8.894 20.03-10.354 28.243-3.383.33.875.472 1.787.463 2.725a8.388 8.388 0 01-1.034 3.963l-3.385 1.86a42.863 42.863 0 01-3.772.751c2.229-1.052 3.756-3.247 3.756-5.776 0-3.607-3.107-6.535-6.935-6.535-3.828 0-6.936 2.928-6.936 6.535 0 3.055 2.228 5.622 5.23 6.313-4.015.281-8.23.106-12.671-.534-1.71-1.618-2.803-3.668-2.959-5.919z"/>
  <path id="collar" fill="#858693" d="M336.582 607.716c9.053-8.228 18.029-18.823 22.366-27.37-8.496 28.306 26.769 94.451 67.385 107.953 35.629-20.621 60.575-53.45 68.872-105.308 14.075 2.474 10.592 32.119 23.572 33.198l1.448.147c.579 19.528 6.214 41.311 14.607 65.987-18.584-1.208-35.195-8.347-46.667-27.333-18.789 19.586-49.622 22.399-69.516 45.333l5.579-9.007c-23.056-12.462-40.834-25.512-54.73-38.993l-40 28 7.084-72.607z"/>
  <path id="shirt-line" fill="none" stroke="#000" stroke-width="1" d="M423.631 694.804c-4.759 4.178-9.634 9.549-10.231 15.459-9.625 95.343-8.457 114.098-7.002 120.426"/>
  <path id="eye-black1" d="M381.549 454.674c3.161.612 5.538 3.248 5.538 6.402l-.245 1.632-.139.425-.56 1.178-.158.276-1.094 1.237-.123.096-1.437.932-2.913.399-1.972.138a6.766 6.766 0 01-1.963-.787l-.124-.064-.441-.32-.543-.423-.349-.352-.476-.544-.275-.388-.372-.646-.196-.409-.255-.774-.105-.378-.131-1.228c0-3.607 3.108-6.535 6.936-6.535l1.397.133z"/>
  <g id="mouth">
    <path id="lip" fill="#ec9e9d" d="M452.68 530.228l.292-.007c-22.116 31.194-44.232 34.047-66.308 2.757 25.701 16.363 47.149 12.209 66.016-2.75z"/>
    <path id="teeth" fill="#fff" d="M441.169 530.485l-.238 4.124c-15.208 5.541-33.3 9.141-44.623-3.119l44.861-1.005z"/>
  </g>
</svg>
