<?xml version="1.0" encoding="UTF-8" standalone="no"?>
<!DOCTYPE svg PUBLIC "-//W3C//DTD SVG 1.1//EN" "http://www.w3.org/Graphics/SVG/1.1/DTD/svg11.dtd">
<svg width="100%" height="100%" viewBox="0 0 354 151" version="1.1" xmlns="http://www.w3.org/2000/svg" xmlns:xlink="http://www.w3.org/1999/xlink" xml:space="preserve" xmlns:serif="http://www.serif.com/" style="fill-rule:evenodd;clip-rule:evenodd;stroke-linejoin:round;stroke-miterlimit:2;">
    <g transform="matrix(1,0,0,1,-3262.85,-766.212)">
        <g transform="matrix(1,0,0,1,674.766,39.0577)">
            <g transform="matrix(2.16737,0,0,2.11992,-3934.81,-350.249)">
                <circle cx="3045" cy="543.643" r="35.415" style="fill:rgb(17,182,160);"/>
            </g>
        </g>
        <g transform="matrix(1,0,0,1,674.766,39.0577)">
            <g transform="matrix(1,0,0,1,-674.766,-39.0577)">
                <path d="M3347.39,823.018L3347.67,823.036L3347.95,823.061L3348.22,823.093L3348.5,823.131L3348.77,823.176L3349.04,823.228L3349.31,823.287L3349.58,823.353L3349.85,823.425L3350.11,823.502L3350.37,823.587L3350.63,823.677L3350.88,823.773L3351.13,823.876L3351.38,823.985L3351.62,824.097L3351.86,824.218L3352.1,824.344L3352.33,824.474L3352.56,824.609L3352.79,824.751L3353.01,824.898L3353.23,825.049L3353.44,825.204L3353.65,825.362L3353.86,825.533L3354.06,825.704L3354.17,825.798L3354.28,825.704L3354.48,825.534L3354.68,825.367L3354.9,825.204L3355.12,825.045L3355.33,824.897L3355.55,824.751L3355.78,824.609L3356.01,824.474L3356.24,824.344L3356.48,824.218L3356.72,824.099L3356.96,823.985L3357.21,823.875L3357.46,823.773L3357.71,823.677L3357.97,823.588L3358.23,823.502L3358.49,823.424L3358.76,823.353L3359.03,823.287L3359.3,823.228L3359.57,823.176L3359.84,823.131L3360.12,823.092L3360.39,823.061L3360.67,823.036L3360.95,823.018L3361.24,823.008L3361.47,823.005L3392.98,823.005L3393.22,823.008L3393.5,823.018L3393.78,823.036L3394.06,823.061L3394.34,823.092L3394.61,823.131L3394.89,823.176L3395.16,823.228L3395.43,823.287L3395.7,823.353L3395.96,823.424L3396.22,823.502L3396.49,823.588L3396.74,823.677L3396.99,823.773L3397.24,823.875L3397.49,823.985L3397.74,824.099L3397.98,824.218L3398.21,824.344L3398.45,824.474L3398.68,824.609L3398.9,824.751L3399.12,824.897L3399.34,825.045L3399.56,825.205L3399.77,825.367L3399.97,825.533L3400.18,825.704L3400.37,825.877L3400.57,826.06L3400.75,826.24L3400.94,826.432L3401.13,826.63L3401.14,826.645L3401.19,826.591L3401.31,826.459L3401.43,826.334L3401.56,826.202L3401.7,826.066L3401.84,825.939L3401.97,825.819L3402.1,825.702L3402.24,825.582L3402.38,825.467L3402.52,825.353L3402.67,825.243L3402.81,825.135L3402.97,825.024L3403.11,824.924L3403.26,824.822L3403.42,824.723L3403.57,824.628L3403.73,824.532L3403.89,824.443L3404.04,824.356L3404.2,824.271L3404.36,824.188L3404.53,824.107L3404.69,824.029L3404.86,823.953L3405.03,823.879L3405.2,823.81L3405.36,823.744L3405.53,823.679L3405.71,823.617L3405.88,823.559L3406.05,823.503L3406.23,823.45L3406.41,823.4L3406.58,823.353L3406.76,823.309L3406.94,823.267L3407.12,823.229L3407.3,823.193L3407.48,823.161L3407.67,823.131L3407.85,823.105L3408.03,823.082L3408.22,823.061L3408.4,823.044L3408.59,823.03L3408.78,823.019L3408.96,823.011L3409.15,823.006L3409.31,823.005L3418.44,823.005L3418.6,823.006L3418.78,823.01L3418.97,823.018L3419.15,823.029L3419.33,823.042L3419.51,823.059L3419.69,823.079L3419.87,823.101L3420.06,823.127L3420.24,823.156L3420.41,823.186L3420.59,823.221L3420.77,823.258L3420.94,823.297L3421.12,823.34L3421.3,823.386L3421.47,823.434L3421.64,823.485L3421.81,823.539L3421.98,823.595L3422.16,823.656L3422.32,823.719L3422.49,823.782L3422.65,823.848L3422.82,823.919L3422.98,823.993L3423.14,824.067L3423.3,824.144L3423.47,824.225L3423.62,824.304L3423.78,824.39L3423.94,824.482L3424.09,824.574L3424.24,824.665L3424.39,824.755L3424.54,824.856L3424.7,824.962L3424.84,825.062L3424.98,825.162L3425.12,825.271L3425.26,825.38L3425.41,825.497L3425.55,825.613L3425.67,825.72L3425.81,825.844L3425.95,825.97L3426.08,826.089L3426.2,826.211L3426.33,826.342L3426.46,826.473L3426.58,826.606L3426.7,826.741L3426.82,826.878L3426.94,827.017L3427.05,827.155L3427.17,827.304L3427.27,827.445L3427.39,827.596L3427.49,827.74L3427.59,827.886L3427.69,828.049L3427.79,828.205L3427.88,828.353L3427.96,828.485L3429.95,831.903L3431.9,828.511L3431.98,828.376L3432.09,828.209L3432.18,828.063L3432.28,827.907L3432.39,827.754L3432.49,827.61L3432.6,827.457L3432.7,827.317L3432.82,827.168L3432.93,827.028L3433.05,826.891L3433.17,826.754L3433.29,826.619L3433.41,826.486L3433.54,826.353L3433.67,826.222L3433.79,826.101L3433.93,825.974L3434.06,825.854L3434.19,825.737L3434.33,825.615L3434.47,825.502L3434.61,825.39L3434.75,825.28L3434.89,825.171L3435.04,825.064L3435.18,824.966L3435.33,824.863L3435.48,824.763L3435.63,824.67L3435.78,824.577L3435.94,824.487L3436.1,824.396L3436.25,824.312L3436.41,824.231L3436.57,824.147L3436.73,824.069L3436.89,823.996L3437.06,823.922L3437.22,823.852L3437.39,823.785L3437.55,823.72L3437.72,823.657L3437.9,823.596L3438.06,823.541L3438.23,823.488L3438.41,823.436L3438.58,823.388L3438.75,823.343L3438.94,823.298L3439.11,823.258L3439.28,823.222L3439.47,823.187L3439.64,823.156L3439.82,823.127L3440,823.102L3440.18,823.079L3440.37,823.059L3440.55,823.043L3440.73,823.029L3440.92,823.018L3441.1,823.011L3441.28,823.006L3441.44,823.005L3450.55,823.005L3450.7,823.006L3450.89,823.011L3451.08,823.019L3451.27,823.03L3451.45,823.044L3451.64,823.062L3451.82,823.082L3452.01,823.105L3452.19,823.132L3452.37,823.161L3452.56,823.194L3452.74,823.23L3452.92,823.268L3453.1,823.309L3453.27,823.353L3453.45,823.401L3453.63,823.452L3453.81,823.504L3453.98,823.56L3454.15,823.619L3454.33,823.68L3454.5,823.746L3454.67,823.813L3454.84,823.882L3455,823.954L3455.17,824.03L3455.34,824.11L3455.49,824.187L3455.66,824.27L3455.82,824.361L3455.98,824.448L3456.13,824.536L3456.29,824.629L3456.45,824.727L3456.6,824.828L3456.75,824.926L3456.9,825.03L3457.05,825.142L3457.2,825.25L3457.33,825.355L3457.47,825.467L3457.62,825.587L3457.76,825.709L3457.9,825.827L3458.03,825.952L3458.17,826.081L3458.3,826.203L3458.43,826.333L3458.55,826.466L3458.68,826.6L3458.8,826.736L3458.93,826.88L3459.04,827.018L3459.16,827.159L3459.28,827.317L3459.39,827.458L3459.49,827.6L3459.61,827.763L3459.61,827.767L3459.68,827.657L3459.84,827.44L3460,827.233L3460.17,827.027L3460.34,826.825L3460.52,826.625L3460.7,826.432L3460.88,826.244L3461.07,826.055L3461.26,825.877L3461.46,825.704L3461.66,825.534L3461.87,825.367L3462.08,825.204L3462.29,825.048L3462.52,824.894L3462.74,824.751L3462.96,824.612L3463.19,824.474L3463.42,824.344L3463.66,824.218L3463.9,824.097L3464.14,823.985L3464.39,823.876L3464.64,823.773L3464.9,823.676L3465.16,823.587L3465.41,823.502L3465.68,823.424L3465.94,823.353L3466.21,823.288L3466.48,823.228L3466.75,823.176L3467.02,823.131L3467.3,823.093L3467.58,823.061L3467.86,823.036L3468.14,823.018L3468.42,823.008L3468.66,823.005L3476.98,823.005L3477.21,823.008L3477.49,823.018L3477.78,823.036L3478.05,823.061L3478.33,823.093L3478.61,823.131L3478.88,823.176L3479.15,823.229L3479.42,823.287L3479.69,823.352L3479.96,823.425L3480.22,823.502L3480.48,823.587L3480.74,823.677L3480.99,823.773L3481.24,823.876L3481.49,823.985L3481.73,824.097L3481.97,824.218L3482.21,824.344L3482.44,824.474L3482.67,824.609L3482.9,824.751L3483.12,824.897L3483.34,825.048L3483.55,825.204L3483.76,825.363L3483.97,825.534L3484.17,825.704L3484.28,825.798L3484.38,825.704L3484.59,825.529L3484.79,825.366L3485.01,825.204L3485.22,825.049L3485.43,824.898L3485.66,824.748L3485.89,824.609L3486.12,824.474L3486.35,824.344L3486.59,824.218L3486.83,824.099L3487.07,823.985L3487.32,823.876L3487.57,823.773L3487.83,823.676L3488.08,823.588L3488.34,823.502L3488.6,823.424L3488.87,823.353L3489.13,823.287L3489.41,823.228L3489.68,823.176L3489.95,823.131L3490.23,823.092L3490.5,823.061L3490.78,823.036L3491.06,823.018L3491.34,823.008L3491.58,823.005L3528.99,823.005L3529.23,823.008L3529.51,823.018L3529.79,823.036L3530.07,823.061L3530.35,823.093L3530.62,823.131L3530.89,823.176L3531.16,823.228L3531.44,823.287L3531.7,823.353L3531.97,823.425L3532.23,823.502L3532.49,823.587L3532.75,823.677L3533,823.773L3533.25,823.876L3533.5,823.985L3533.74,824.097L3533.99,824.218L3534.22,824.344L3534.45,824.474L3534.68,824.609L3534.91,824.751L3535.13,824.898L3535.35,825.049L3535.57,825.204L3535.77,825.362L3535.98,825.533L3536.19,825.704L3536.38,825.877L3536.58,826.06L3536.77,826.244L3536.95,826.433L3537.13,826.626L3537.31,826.823L3537.47,827.021L3537.64,827.227L3537.81,827.446L3537.96,827.657L3538.11,827.87L3538.26,828.097L3538.4,828.328L3538.53,828.554L3538.67,828.788L3538.79,829.023L3538.91,829.262L3539.02,829.508L3539.13,829.756L3539.24,830.012L3539.33,830.263L3539.42,830.515L3539.51,830.775L3539.58,831.036L3539.66,831.306L3539.72,831.576L3539.73,831.598L3539.75,831.575L3539.93,831.417L3540.11,831.26L3540.29,831.104L3540.47,830.949L3540.65,830.798L3540.84,830.644L3541.02,830.493L3541.2,830.344L3541.39,830.194L3541.58,830.046L3541.76,829.9L3541.95,829.753L3542.15,829.608L3542.33,829.467L3542.53,829.324L3542.72,829.182L3542.91,829.042L3543.11,828.904L3543.3,828.765L3543.5,828.627L3543.7,828.494L3543.89,828.36L3544.09,828.225L3544.29,828.093L3544.49,827.963L3544.7,827.832L3544.9,827.704L3545.1,827.578L3545.3,827.452L3545.51,827.326L3545.72,827.202L3545.92,827.08L3546.13,826.959L3546.34,826.838L3546.55,826.719L3546.76,826.601L3546.97,826.485L3547.18,826.37L3547.39,826.256L3547.61,826.142L3547.82,826.031L3548.03,825.921L3548.25,825.811L3548.47,825.703L3548.69,825.596L3548.9,825.491L3549.12,825.387L3549.34,825.284L3549.56,825.183L3549.78,825.082L3550.01,824.982L3550.23,824.885L3550.45,824.788L3550.67,824.693L3550.9,824.599L3551.13,824.506L3551.35,824.414L3551.58,824.324L3551.8,824.236L3552.03,824.148L3552.26,824.061L3552.49,823.976L3552.72,823.892L3552.95,823.811L3553.19,823.729L3553.42,823.649L3553.65,823.571L3553.89,823.493L3554.12,823.418L3554.35,823.343L3554.59,823.271L3554.83,823.199L3555.06,823.128L3555.3,823.059L3555.54,822.991L3555.78,822.925L3556.02,822.86L3556.26,822.796L3556.5,822.734L3556.74,822.673L3556.98,822.613L3557.22,822.555L3557.47,822.498L3557.71,822.443L3557.95,822.389L3558.2,822.336L3558.44,822.285L3558.69,822.235L3558.93,822.186L3559.18,822.139L3559.43,822.093L3559.68,822.049L3559.93,822.006L3560.18,821.965L3560.43,821.925L3560.67,821.886L3560.92,821.849L3561.18,821.813L3561.43,821.779L3561.68,821.746L3561.93,821.714L3562.18,821.684L3562.44,821.655L3562.69,821.628L3562.95,821.602L3563.2,821.578L3563.46,821.555L3563.71,821.534L3563.97,821.514L3564.22,821.496L3564.48,821.478L3564.74,821.463L3565,821.449L3565.26,821.436L3565.51,821.425L3565.77,821.415L3566.03,821.407L3566.29,821.401L3566.55,821.395L3566.81,821.392L3567.07,821.389L3567.33,821.389L3567.6,821.389L3567.86,821.392L3568.12,821.395L3568.38,821.401L3568.64,821.407L3568.9,821.415L3569.16,821.425L3569.41,821.436L3569.67,821.449L3569.93,821.463L3570.19,821.478L3570.45,821.496L3570.7,821.514L3570.96,821.534L3571.21,821.555L3571.47,821.578L3571.72,821.602L3571.98,821.628L3572.23,821.655L3572.49,821.684L3572.74,821.714L3572.99,821.746L3573.24,821.779L3573.49,821.813L3573.74,821.849L3573.99,821.886L3574.24,821.925L3574.49,821.965L3574.74,822.006L3574.99,822.049L3575.24,822.093L3575.49,822.139L3575.73,822.186L3575.98,822.235L3576.23,822.285L3576.47,822.336L3576.71,822.389L3576.96,822.443L3577.2,822.498L3577.45,822.555L3577.69,822.613L3577.93,822.673L3578.17,822.734L3578.41,822.796L3578.65,822.86L3578.89,822.925L3579.13,822.991L3579.37,823.059L3579.61,823.128L3579.84,823.199L3580.08,823.27L3580.31,823.343L3580.55,823.418L3580.78,823.494L3581.02,823.571L3581.25,823.649L3581.48,823.729L3581.71,823.81L3581.95,823.892L3582.18,823.977L3582.41,824.061L3582.64,824.148L3582.86,824.236L3583.09,824.324L3583.32,824.414L3583.54,824.506L3583.77,824.599L3583.99,824.693L3584.22,824.788L3584.44,824.884L3584.66,824.983L3584.89,825.082L3585.11,825.183L3585.33,825.284L3585.55,825.387L3585.76,825.491L3585.98,825.597L3586.2,825.703L3586.42,825.811L3586.63,825.92L3586.85,826.031L3587.06,826.143L3587.27,826.255L3587.49,826.369L3587.7,826.485L3587.91,826.601L3588.12,826.72L3588.33,826.839L3588.54,826.959L3588.74,827.079L3588.95,827.202L3589.16,827.327L3589.37,827.452L3589.57,827.577L3589.77,827.704L3589.97,827.833L3590.18,827.963L3590.38,828.093L3590.58,828.225L3590.77,828.358L3590.97,828.494L3591.17,828.629L3591.37,828.765L3591.56,828.904L3591.76,829.042L3591.95,829.182L3592.14,829.322L3592.33,829.465L3592.53,829.609L3592.71,829.753L3592.9,829.9L3593.09,830.047L3593.28,830.194L3593.46,830.342L3593.65,830.493L3593.83,830.644L3594.02,830.798L3594.2,830.951L3594.38,831.104L3594.56,831.26L3594.74,831.417L3594.91,831.573L3595.1,831.734L3595.27,831.895L3595.44,832.054L3595.62,832.218L3595.79,832.38L3595.96,832.543L3596.13,832.708L3596.31,832.876L3596.47,833.043L3596.64,833.211L3596.81,833.38L3596.97,833.549L3597.14,833.722L3597.3,833.894L3597.47,834.067L3597.63,834.243L3597.79,834.417L3597.95,834.592L3598.11,834.771L3598.26,834.951L3598.42,835.129L3598.57,835.308L3598.73,835.49L3598.88,835.674L3599.03,835.856L3599.18,836.038L3599.33,836.224L3599.48,836.411L3599.63,836.599L3599.77,836.788L3599.92,836.975L3600.06,837.165L3600.2,837.356L3600.34,837.548L3600.48,837.741L3600.62,837.932L3600.76,838.13L3600.9,838.325L3601.03,838.518L3601.16,838.715L3601.3,838.917L3601.43,839.115L3601.56,839.314L3601.69,839.515L3601.82,839.715L3601.95,839.921L3602.07,840.123L3602.19,840.327L3602.32,840.531L3602.44,840.739L3602.56,840.944L3602.68,841.151L3602.8,841.361L3602.91,841.568L3603.03,841.78L3603.14,841.992L3603.26,842.203L3603.37,842.413L3603.48,842.628L3603.59,842.843L3603.69,843.056L3603.8,843.272L3603.91,843.49L3604.01,843.708L3604.11,843.923L3604.21,844.143L3604.31,844.363L3604.41,844.58L3604.51,844.805L3604.6,845.027L3604.7,845.25L3604.79,845.473L3604.88,845.693L3604.97,845.918L3605.06,846.147L3605.15,846.372L3605.23,846.599L3605.32,846.826L3605.4,847.053L3605.49,847.285L3605.57,847.514L3605.64,847.743L3605.72,847.973L3605.8,848.207L3605.87,848.438L3605.95,848.669L3606.02,848.905L3606.09,849.137L3606.16,849.374L3606.23,849.612L3606.29,849.846L3606.36,850.08L3606.42,850.319L3606.48,850.558L3606.54,850.794L3606.6,851.035L3606.66,851.275L3606.72,851.513L3606.77,851.755L3606.82,851.997L3606.88,852.24L3606.93,852.483L3606.97,852.726L3607.02,852.97L3607.07,853.215L3607.11,853.455L3607.15,853.701L3607.2,853.95L3607.24,854.196L3607.27,854.443L3607.31,854.69L3607.35,854.937L3607.38,855.184L3607.41,855.432L3607.44,855.684L3607.47,855.933L3607.5,856.182L3607.52,856.435L3607.55,856.685L3607.57,856.935L3607.59,857.189L3607.61,857.444L3607.63,857.695L3607.65,857.946L3607.66,858.198L3607.68,858.454L3607.69,858.71L3607.7,858.966L3607.71,859.223L3607.71,859.476L3607.72,859.729L3607.72,859.987L3607.72,860.244L3607.73,860.502L3607.72,860.759L3607.72,861.015L3607.72,861.271L3607.71,861.523L3607.71,861.775L3607.7,862.03L3607.69,862.285L3607.68,862.54L3607.66,862.795L3607.65,863.045L3607.63,863.295L3607.61,863.544L3607.59,863.798L3607.57,864.051L3607.55,864.299L3607.52,864.547L3607.5,864.8L3607.47,865.047L3607.44,865.294L3607.41,865.546L3607.38,865.792L3607.34,866.039L3607.31,866.284L3607.27,866.53L3607.23,866.775L3607.19,867.024L3607.15,867.268L3607.11,867.508L3607.07,867.752L3607.02,867.995L3606.97,868.241L3606.92,868.484L3606.87,868.722L3606.82,868.963L3606.77,869.204L3606.71,869.44L3606.66,869.681L3606.6,869.92L3606.54,870.159L3606.48,870.398L3606.42,870.632L3606.35,870.866L3606.29,871.103L3606.22,871.34L3606.15,871.572L3606.08,871.808L3606.01,872.039L3605.94,872.273L3605.87,872.504L3605.79,872.733L3605.72,872.966L3605.64,873.195L3605.56,873.427L3605.48,873.654L3605.39,873.881L3605.31,874.107L3605.23,874.333L3605.14,874.558L3605.05,874.783L3604.96,875.01L3604.87,875.234L3604.78,875.453L3604.69,875.674L3604.59,875.9L3604.5,876.121L3604.4,876.337L3604.3,876.557L3604.2,876.78L3604.1,876.994L3604,877.208L3603.89,877.429L3603.79,877.645L3603.68,877.857L3603.58,878.068L3603.47,878.282L3603.36,878.496L3603.24,878.705L3603.13,878.918L3603.01,879.129L3602.9,879.336L3602.78,879.542L3602.66,879.752L3602.54,879.96L3602.42,880.165L3602.3,880.368L3602.18,880.571L3602.06,880.773L3601.93,880.978L3601.8,881.179L3601.68,881.379L3601.54,881.58L3601.41,881.779L3601.28,881.976L3601.15,882.173L3601.01,882.369L3600.88,882.564L3600.74,882.758L3600.61,882.952L3600.47,883.142L3600.33,883.333L3600.18,883.528L3600.04,883.718L3599.9,883.904L3599.75,884.092L3599.61,884.279L3599.46,884.464L3599.31,884.653L3599.16,884.835L3599.01,885.016L3598.86,885.202L3598.71,885.382L3598.55,885.56L3598.4,885.741L3598.24,885.918L3598.08,886.097L3597.92,886.274L3597.77,886.446L3597.61,886.622L3597.44,886.797L3597.28,886.969L3597.12,887.139L3596.95,887.308L3596.78,887.48L3596.62,887.648L3596.45,887.814L3596.28,887.98L3596.11,888.145L3595.94,888.309L3595.77,888.472L3595.59,888.636L3595.42,888.797L3595.25,888.955L3595.07,889.114L3594.89,889.272L3594.71,889.429L3594.53,889.585L3594.35,889.74L3594.17,889.894L3593.99,890.045L3593.81,890.197L3593.62,890.347L3593.44,890.497L3593.25,890.645L3593.07,890.79L3592.88,890.938L3592.69,891.082L3592.5,891.225L3592.31,891.368L3592.11,891.511L3591.92,891.651L3591.73,891.788L3591.53,891.928L3591.34,892.064L3591.14,892.199L3590.94,892.335L3590.75,892.468L3590.55,892.6L3590.35,892.732L3590.14,892.862L3589.94,892.991L3589.74,893.118L3589.54,893.245L3589.33,893.37L3589.13,893.493L3588.92,893.617L3588.72,893.738L3588.51,893.859L3588.3,893.979L3588.09,894.097L3587.88,894.213L3587.67,894.329L3587.45,894.445L3587.24,894.557L3587.03,894.669L3586.82,894.78L3586.6,894.89L3586.39,894.999L3586.17,895.105L3585.95,895.211L3585.73,895.317L3585.52,895.42L3585.3,895.522L3585.08,895.623L3584.86,895.722L3584.63,895.821L3584.41,895.919L3584.19,896.015L3583.96,896.109L3583.74,896.203L3583.51,896.295L3583.29,896.386L3583.06,896.475L3582.83,896.564L3582.6,896.651L3582.37,896.736L3582.14,896.821L3581.91,896.904L3581.68,896.986L3581.45,897.066L3581.22,897.145L3580.99,897.223L3580.75,897.3L3580.52,897.375L3580.28,897.449L3580.05,897.522L3579.81,897.593L3579.57,897.663L3579.33,897.732L3579.1,897.799L3578.86,897.865L3578.62,897.929L3578.38,897.992L3578.14,898.054L3577.9,898.115L3577.65,898.174L3577.41,898.232L3577.17,898.288L3576.93,898.343L3576.68,898.397L3576.44,898.45L3576.19,898.5L3575.95,898.55L3575.7,898.598L3575.45,898.645L3575.2,898.69L3574.96,898.734L3574.71,898.777L3574.46,898.818L3574.21,898.858L3573.96,898.896L3573.71,898.933L3573.46,898.969L3573.21,899.003L3572.95,899.036L3572.7,899.067L3572.45,899.097L3572.2,899.125L3571.94,899.152L3571.69,899.178L3571.43,899.202L3571.18,899.225L3570.92,899.246L3570.66,899.266L3570.41,899.284L3570.15,899.301L3569.89,899.317L3569.64,899.331L3569.38,899.343L3569.12,899.354L3568.86,899.364L3568.6,899.372L3568.34,899.378L3568.08,899.384L3567.82,899.387L3567.56,899.39L3567.3,899.39L3567.04,899.39L3566.78,899.387L3566.51,899.384L3566.25,899.378L3565.99,899.372L3565.74,899.364L3565.48,899.354L3565.22,899.343L3564.96,899.33L3564.7,899.317L3564.45,899.301L3564.19,899.284L3563.93,899.266L3563.68,899.246L3563.42,899.225L3563.17,899.202L3562.91,899.178L3562.66,899.152L3562.41,899.125L3562.15,899.097L3561.9,899.067L3561.65,899.036L3561.4,899.003L3561.14,898.969L3560.89,898.933L3560.64,898.896L3560.39,898.858L3560.14,898.818L3559.89,898.777L3559.65,898.734L3559.4,898.69L3559.15,898.645L3558.91,898.598L3558.66,898.55L3558.41,898.5L3558.17,898.449L3557.93,898.397L3557.68,898.343L3557.44,898.288L3557.2,898.231L3556.95,898.173L3556.71,898.114L3556.47,898.054L3556.23,897.992L3555.99,897.928L3555.75,897.864L3555.51,897.798L3555.28,897.73L3555.04,897.662L3554.8,897.592L3554.57,897.52L3554.33,897.448L3554.1,897.374L3553.86,897.299L3553.63,897.222L3553.4,897.144L3553.16,897.065L3552.93,896.984L3552.7,896.902L3552.47,896.819L3552.24,896.735L3552.01,896.649L3551.78,896.562L3551.56,896.474L3551.33,896.383L3551.1,896.292L3550.88,896.201L3550.66,896.107L3550.43,896.012L3550.21,895.916L3549.99,895.819L3549.77,895.721L3549.54,895.621L3549.32,895.519L3549.11,895.417L3548.89,895.314L3548.67,895.209L3548.45,895.103L3548.23,894.995L3548.02,894.887L3547.81,894.778L3547.59,894.666L3547.38,894.553L3547.17,894.442L3546.96,894.327L3546.74,894.209L3546.53,894.092L3546.33,893.975L3546.12,893.856L3545.91,893.735L3545.7,893.613L3545.5,893.49L3545.29,893.366L3545.09,893.241L3544.89,893.114L3544.68,892.986L3544.48,892.857L3544.28,892.728L3544.08,892.597L3543.88,892.463L3543.68,892.329L3543.49,892.197L3543.29,892.06L3543.1,891.923L3542.9,891.785L3542.71,891.645L3542.52,891.505L3542.33,891.363L3542.14,891.222L3541.95,891.077L3541.76,890.932L3541.57,890.787L3541.38,890.639L3541.2,890.492L3541.01,890.342L3540.83,890.191L3540.64,890.041L3540.46,889.888L3540.28,889.735L3540.1,889.579L3539.92,889.423L3539.75,889.268L3539.57,889.11L3539.39,888.949L3539.22,888.789L3539.04,888.63L3538.87,888.468L3538.7,888.305L3538.53,888.141L3538.36,887.973L3538.19,887.807L3538.02,887.641L3537.86,887.473L3537.69,887.304L3537.52,887.132L3537.36,886.962L3537.2,886.79L3537.04,886.617L3536.88,886.441L3536.72,886.264L3536.56,886.092L3536.4,885.913L3536.25,885.733L3536.09,885.555L3535.94,885.376L3535.79,885.194L3535.63,885.01L3535.49,884.829L3535.34,884.645L3535.19,884.459L3535.04,884.271L3534.89,884.086L3534.75,883.898L3534.61,883.709L3534.47,883.522L3534.32,883.327L3534.18,883.136L3534.05,882.946L3533.91,882.752L3533.77,882.558L3533.64,882.363L3533.5,882.164L3533.37,881.967L3533.24,881.772L3533.11,881.574L3532.98,881.372L3532.85,881.172L3532.72,880.971L3532.6,880.767L3532.47,880.565L3532.35,880.361L3532.23,880.158L3532.11,879.954L3531.99,879.745L3531.87,879.535L3531.75,879.329L3531.64,879.122L3531.53,878.911L3531.41,878.698L3531.3,878.489L3531.19,878.279L3531.08,878.065L3530.97,877.85L3530.87,877.638L3530.76,877.421L3530.66,877.204L3530.56,876.987L3530.45,876.769L3530.36,876.553L3530.26,876.334L3530.16,876.113L3530.07,875.892L3529.97,875.671L3529.88,875.449L3529.79,875.226L3529.7,875.002L3529.61,874.779L3529.52,874.554L3529.43,874.329L3529.35,874.103L3529.26,873.873L3529.18,873.646L3529.1,873.419L3529.03,873.191L3528.95,872.962L3528.87,872.729L3528.79,872.496L3528.72,872.265L3528.65,872.039L3528.58,871.804L3528.51,871.568L3528.44,871.336L3528.38,871.099L3528.31,870.862L3528.25,870.628L3528.19,870.394L3528.12,870.151L3528.07,869.916L3528.01,869.681L3527.95,869.436L3527.9,869.2L3527.84,868.959L3527.79,868.717L3527.74,868.48L3527.69,868.237L3527.65,867.99L3527.6,867.747L3527.56,867.508L3527.51,867.264L3527.47,867.02L3527.43,866.775L3527.39,866.526L3527.36,866.28L3527.32,866.039L3527.29,865.788L3527.26,865.542L3527.23,865.294L3527.2,865.043L3527.17,864.796L3527.14,864.547L3527.12,864.299L3527.1,864.051L3527.08,863.798L3527.06,863.544L3527.04,863.295L3527.02,863.041L3527.01,862.79L3526.99,862.54L3526.98,862.285L3526.97,862.03L3526.96,861.775L3526.96,861.523L3526.95,861.267L3526.95,861.011L3526.94,860.759L3526.94,860.502L3526.94,860.244L3526.95,859.991L3526.95,859.733L3526.95,859.476L3526.96,859.219L3526.97,858.962L3526.98,858.71L3526.99,858.458L3527.01,858.202L3527.02,857.946L3527.04,857.695L3527.06,857.44L3527.08,857.189L3527.1,856.939L3527.12,856.685L3527.14,856.431L3527.17,856.182L3527.2,855.933L3527.23,855.684L3527.26,855.436L3527.29,855.184L3527.32,854.937L3527.36,854.69L3527.39,854.443L3527.43,854.196L3527.47,853.946L3527.51,853.701L3527.56,853.46L3527.6,853.215L3527.65,852.966L3527.7,852.722L3527.74,852.483L3527.78,852.3L3525.5,852.3L3525.5,886.835L3525.49,887.074L3525.48,887.358L3525.47,887.634L3525.44,887.911L3525.41,888.189L3525.37,888.468L3525.32,888.746L3525.27,889.016L3525.22,889.279L3525.15,889.549L3525.08,889.818L3525,890.079L3524.91,890.34L3524.83,890.591L3524.73,890.841L3524.63,891.099L3524.52,891.346L3524.4,891.593L3524.28,891.831L3524.16,892.066L3524.03,892.301L3523.89,892.527L3523.75,892.756L3523.6,892.983L3523.45,893.197L3523.3,893.408L3523.13,893.628L3522.97,893.833L3522.8,894.03L3522.62,894.23L3522.44,894.421L3522.26,894.609L3522.07,894.795L3521.88,894.977L3521.68,895.15L3521.48,895.321L3521.26,895.492L3521.06,895.65L3520.85,895.805L3520.63,895.956L3520.4,896.103L3520.18,896.245L3519.95,896.38L3519.72,896.511L3519.48,896.636L3519.24,896.757L3518.99,896.87L3518.75,896.978L3518.5,897.08L3518.24,897.176L3517.98,897.268L3517.72,897.352L3517.47,897.429L3517.2,897.502L3516.93,897.567L3516.66,897.625L3516.39,897.678L3516.11,897.723L3515.84,897.761L3515.56,897.793L3515.28,897.818L3515,897.836L3514.72,897.846L3514.48,897.849L3506.12,897.849L3505.89,897.846L3505.61,897.836L3505.33,897.818L3505.05,897.793L3504.77,897.762L3504.49,897.723L3504.22,897.678L3503.95,897.625L3503.68,897.567L3503.41,897.502L3503.14,897.43L3502.88,897.352L3502.63,897.268L3502.37,897.177L3502.11,897.079L3501.86,896.978L3501.62,896.87L3501.37,896.755L3501.13,896.636L3500.9,896.513L3500.66,896.383L3500.43,896.243L3500.2,896.103L3499.98,895.959L3499.76,895.805L3499.55,895.647L3499.34,895.488L3499.14,895.325L3498.93,895.15L3498.73,894.977L3498.54,894.795L3498.35,894.609L3498.17,894.426L3497.99,894.23L3497.81,894.03L3497.64,893.827L3497.47,893.622L3497.31,893.414L3497.15,893.197L3497,892.977L3496.86,892.756L3496.72,892.534L3496.58,892.301L3496.45,892.066L3496.32,891.831L3496.2,891.585L3496.09,891.346L3495.98,891.099L3495.88,890.849L3495.78,890.599L3495.69,890.331L3495.61,890.071L3495.53,889.818L3495.46,889.557L3495.39,889.287L3495.33,889.008L3495.28,888.738L3495.24,888.468L3495.2,888.189L3495.17,887.911L3495.14,887.634L3495.13,887.358L3495.11,887.074L3495.11,886.835L3495.11,852.3L3491.58,852.3L3491.35,852.297L3491.08,852.287L3490.8,852.27L3490.53,852.247L3490.26,852.216L3489.99,852.18L3489.72,852.136L3489.46,852.086L3489.19,852.03L3488.93,851.967L3488.67,851.898L3488.41,851.823L3488.15,851.74L3487.99,851.686L3487.99,886.843L3487.99,887.074L3487.98,887.349L3487.96,887.634L3487.93,887.92L3487.9,888.198L3487.86,888.459L3487.82,888.738L3487.76,889.016L3487.71,889.279L3487.64,889.549L3487.57,889.818L3487.49,890.079L3487.41,890.34L3487.32,890.591L3487.22,890.841L3487.12,891.099L3487.01,891.346L3486.89,891.593L3486.78,891.831L3486.65,892.067L3486.52,892.301L3486.38,892.533L3486.24,892.756L3486.1,892.977L3485.94,893.203L3485.79,893.414L3485.63,893.622L3485.46,893.827L3485.29,894.03L3485.12,894.23L3484.94,894.421L3484.75,894.609L3484.56,894.795L3484.37,894.977L3484.17,895.15L3483.97,895.321L3483.76,895.492L3483.55,895.65L3483.34,895.805L3483.12,895.956L3482.9,896.103L3482.67,896.245L3482.44,896.38L3482.21,896.511L3481.97,896.636L3481.73,896.757L3481.49,896.87L3481.24,896.978L3480.99,897.081L3480.74,897.176L3480.48,897.268L3480.22,897.352L3479.96,897.429L3479.69,897.502L3479.42,897.567L3479.16,897.625L3478.88,897.678L3478.61,897.723L3478.33,897.761L3478.05,897.793L3477.78,897.818L3477.5,897.836L3477.21,897.846L3476.98,897.849L3468.66,897.849L3468.42,897.846L3468.14,897.836L3467.86,897.818L3467.58,897.793L3467.3,897.761L3467.03,897.723L3466.75,897.678L3466.48,897.625L3466.21,897.566L3465.94,897.502L3465.68,897.43L3465.41,897.352L3465.16,897.268L3464.9,897.177L3464.64,897.081L3464.39,896.978L3464.15,896.87L3463.9,896.757L3463.66,896.636L3463.42,896.511L3463.19,896.38L3462.96,896.243L3462.74,896.103L3462.51,895.959L3462.29,895.805L3462.08,895.65L3461.87,895.488L3461.66,895.321L3461.46,895.15L3461.26,894.977L3461.07,894.799L3460.88,894.609L3460.7,894.421L3460.52,894.23L3460.34,894.03L3460.17,893.827L3460.16,893.82L3460.12,893.875L3460,894.012L3459.88,894.156L3459.75,894.291L3459.63,894.418L3459.51,894.55L3459.37,894.686L3459.24,894.809L3459.12,894.928L3458.98,895.053L3458.83,895.178L3458.7,895.292L3458.56,895.405L3458.41,895.524L3458.27,895.633L3458.13,895.735L3457.98,895.841L3457.83,895.946L3457.68,896.047L3457.52,896.148L3457.37,896.241L3457.22,896.331L3457.06,896.421L3456.9,896.511L3456.74,896.595L3456.58,896.678L3456.42,896.758L3456.25,896.835L3456.09,896.91L3455.92,896.981L3455.76,897.049L3455.59,897.117L3455.41,897.182L3455.24,897.242L3455.07,897.299L3454.9,897.355L3454.72,897.407L3454.55,897.457L3454.37,897.505L3454.19,897.548L3454.01,897.589L3453.84,897.627L3453.66,897.662L3453.47,897.695L3453.29,897.724L3453.11,897.75L3452.92,897.773L3452.74,897.793L3452.56,897.81L3452.37,897.825L3452.18,897.836L3452,897.843L3451.81,897.848L3451.66,897.849L3442.36,897.849L3442.2,897.848L3442.01,897.843L3441.83,897.836L3441.65,897.825L3441.46,897.811L3441.28,897.794L3441.09,897.774L3440.91,897.751L3440.73,897.725L3440.55,897.697L3440.37,897.665L3440.19,897.63L3440.01,897.592L3439.84,897.552L3439.66,897.508L3439.48,897.462L3439.31,897.413L3439.13,897.361L3438.96,897.307L3438.79,897.25L3438.62,897.189L3438.45,897.125L3438.28,897.061L3438.12,896.993L3437.95,896.921L3437.78,896.848L3437.62,896.77L3437.46,896.693L3437.3,896.612L3437.14,896.526L3436.99,896.443L3436.83,896.354L3436.67,896.26L3436.51,896.162L3436.37,896.069L3436.22,895.972L3436.07,895.868L3435.92,895.765L3435.78,895.658L3435.63,895.549L3435.49,895.437L3435.35,895.323L3435.21,895.209L3435.07,895.088L3434.93,894.963L3434.81,894.849L3434.68,894.722L3434.55,894.593L3434.42,894.463L3434.29,894.33L3434.18,894.202L3434.05,894.059L3433.93,893.921L3433.82,893.783L3433.7,893.634L3433.59,893.493L3433.48,893.353L3433.37,893.201L3433.26,893.045L3433.16,892.892L3433.06,892.736L3432.96,892.58L3432.87,892.422L3432.79,892.29L3429.93,887.267L3427.09,892.277L3427.01,892.409L3426.92,892.567L3426.82,892.724L3426.72,892.879L3426.62,893.035L3426.51,893.188L3426.4,893.332L3426.29,893.483L3426.18,893.633L3426.07,893.764L3425.95,893.909L3425.83,894.056L3425.71,894.184L3425.59,894.318L3425.46,894.458L3425.34,894.583L3425.21,894.707L3425.07,894.841L3424.93,894.966L3424.81,895.079L3424.68,895.195L3424.53,895.315L3424.39,895.433L3424.24,895.545L3424.11,895.649L3423.96,895.756L3423.81,895.861L3423.66,895.965L3423.51,896.066L3423.36,896.161L3423.21,896.254L3423.05,896.348L3422.9,896.435L3422.74,896.522L3422.57,896.61L3422.42,896.689L3422.26,896.768L3422.09,896.845L3421.93,896.917L3421.76,896.989L3421.6,897.058L3421.43,897.124L3421.26,897.187L3421.09,897.247L3420.91,897.306L3420.74,897.36L3420.57,897.412L3420.39,897.461L3420.22,897.507L3420.04,897.551L3419.86,897.592L3419.68,897.63L3419.51,897.664L3419.33,897.696L3419.14,897.725L3418.96,897.751L3418.78,897.774L3418.6,897.794L3418.41,897.811L3418.23,897.825L3418.04,897.836L3417.86,897.843L3417.68,897.848L3417.52,897.849L3408.21,897.849L3408.05,897.848L3407.86,897.843L3407.68,897.836L3407.5,897.825L3407.31,897.811L3407.13,897.794L3406.94,897.773L3406.76,897.75L3406.58,897.724L3406.4,897.695L3406.21,897.662L3406.03,897.627L3405.85,897.589L3405.68,897.548L3405.49,897.504L3405.32,897.457L3405.15,897.408L3404.97,897.356L3404.8,897.3L3404.63,897.243L3404.45,897.181L3404.28,897.117L3404.11,897.05L3403.94,896.98L3403.78,896.912L3403.62,896.838L3403.45,896.758L3403.29,896.679L3403.13,896.597L3402.97,896.511L3402.81,896.426L3402.66,896.337L3402.49,896.239L3402.34,896.145L3402.19,896.05L3402.04,895.949L3401.89,895.845L3401.74,895.739L3401.6,895.636L3401.45,895.52L3401.31,895.409L3401.17,895.297L3401.03,895.175L3400.89,895.058L3400.76,894.937L3400.63,894.818L3400.59,894.775L3400.57,894.795L3400.37,894.977L3400.18,895.151L3399.97,895.321L3399.77,895.487L3399.56,895.65L3399.34,895.808L3399.13,895.956L3398.9,896.103L3398.68,896.245L3398.45,896.38L3398.21,896.511L3397.98,896.636L3397.74,896.755L3397.49,896.87L3397.24,896.979L3396.99,897.081L3396.74,897.176L3396.49,897.267L3396.22,897.352L3395.96,897.43L3395.69,897.502L3395.43,897.567L3395.16,897.625L3394.89,897.678L3394.61,897.723L3394.34,897.762L3394.06,897.793L3393.78,897.818L3393.5,897.836L3393.22,897.846L3392.98,897.849L3361.47,897.849L3361.23,897.846L3360.95,897.836L3360.67,897.818L3360.39,897.793L3360.12,897.762L3359.84,897.723L3359.57,897.678L3359.29,897.625L3359.03,897.567L3358.76,897.502L3358.49,897.43L3358.23,897.352L3357.97,897.267L3357.71,897.176L3357.46,897.081L3357.21,896.979L3356.96,896.87L3356.72,896.755L3356.48,896.636L3356.24,896.511L3356.01,896.38L3355.78,896.245L3355.55,896.103L3355.33,895.956L3355.11,895.808L3354.9,895.65L3354.68,895.487L3354.48,895.321L3354.28,895.151L3354.08,894.977L3353.89,894.795L3353.7,894.613L3353.51,894.421L3353.33,894.225L3353.16,894.035L3352.99,893.833L3352.82,893.622L3352.66,893.413L3352.5,893.197L3352.35,892.978L3352.2,892.756L3352.06,892.526L3351.93,892.301L3351.8,892.074L3351.67,891.831L3351.55,891.585L3351.44,891.346L3351.33,891.099L3351.23,890.849L3351.13,890.591L3351.04,890.331L3350.96,890.079L3350.88,889.818L3350.81,889.549L3350.74,889.279L3350.68,889.016L3350.63,888.746L3350.59,888.468L3350.55,888.189L3350.51,887.911L3350.49,887.634L3350.47,887.358L3350.46,887.074L3350.46,886.835L3350.46,851.686L3350.3,851.741L3350.04,851.823L3349.78,851.898L3349.52,851.967L3349.26,852.03L3348.99,852.086L3348.72,852.136L3348.46,852.18L3348.19,852.217L3347.92,852.247L3347.65,852.27L3347.37,852.287L3347.1,852.297L3346.87,852.3L3343.38,852.3L3343.38,886.835L3343.37,887.074L3343.36,887.358L3343.34,887.634L3343.32,887.911L3343.29,888.189L3343.25,888.468L3343.2,888.746L3343.15,889.016L3343.09,889.279L3343.03,889.549L3342.95,889.818L3342.88,890.079L3342.79,890.34L3342.7,890.591L3342.61,890.841L3342.5,891.099L3342.39,891.346L3342.28,891.593L3342.16,891.831L3342.04,892.066L3341.91,892.301L3341.77,892.527L3341.63,892.756L3341.48,892.983L3341.33,893.197L3341.18,893.408L3341.01,893.628L3340.84,893.833L3340.68,894.03L3340.5,894.23L3340.32,894.421L3340.14,894.609L3339.95,894.795L3339.75,894.977L3339.56,895.15L3339.36,895.321L3339.14,895.492L3338.94,895.65L3338.72,895.805L3338.51,895.956L3338.28,896.103L3338.06,896.245L3337.83,896.38L3337.59,896.511L3337.36,896.636L3337.11,896.757L3336.87,896.87L3336.62,896.978L3336.37,897.08L3336.12,897.176L3335.86,897.268L3335.6,897.352L3335.34,897.429L3335.08,897.502L3334.81,897.567L3334.54,897.625L3334.26,897.678L3333.99,897.723L3333.72,897.761L3333.44,897.793L3333.16,897.818L3332.88,897.836L3332.6,897.846L3332.36,897.849L3324,897.849L3323.76,897.846L3323.48,897.836L3323.2,897.818L3322.93,897.793L3322.65,897.762L3322.37,897.723L3322.1,897.678L3321.83,897.625L3321.56,897.567L3321.29,897.502L3321.02,897.43L3320.76,897.352L3320.5,897.268L3320.25,897.177L3319.99,897.079L3319.74,896.978L3319.49,896.87L3319.25,896.755L3319.01,896.636L3318.78,896.513L3318.54,896.383L3318.3,896.243L3318.08,896.103L3317.86,895.959L3317.64,895.805L3317.42,895.647L3317.22,895.488L3317.01,895.325L3316.81,895.15L3316.61,894.973L3316.42,894.795L3316.23,894.613L3316.05,894.426L3315.86,894.23L3315.69,894.03L3315.52,893.827L3315.35,893.622L3315.19,893.414L3315.03,893.197L3314.88,892.977L3314.74,892.756L3314.6,892.534L3314.46,892.301L3314.33,892.066L3314.2,891.831L3314.08,891.585L3313.97,891.346L3313.86,891.099L3313.76,890.849L3313.66,890.599L3313.57,890.331L3313.49,890.071L3313.41,889.818L3313.34,889.557L3313.27,889.287L3313.21,889.008L3313.16,888.738L3313.12,888.468L3313.08,888.189L3313.05,887.911L3313.02,887.634L3313,887.358L3312.99,887.074L3312.99,886.835L3312.99,852.3L3309.46,852.3L3309.23,852.297L3308.95,852.287L3308.68,852.27L3308.41,852.247L3308.14,852.216L3307.87,852.18L3307.6,852.136L3307.34,852.086L3307.07,852.03L3306.81,851.967L3306.55,851.898L3306.29,851.823L3306.03,851.74L3305.77,851.653L3305.52,851.56L3305.27,851.459L3305.02,851.353L3304.78,851.241L3304.54,851.123L3304.3,850.999L3304.06,850.866L3303.82,850.731L3303.6,850.591L3303.37,850.442L3303.14,850.289L3302.93,850.132L3302.71,849.967L3302.5,849.798L3302.29,849.623L3302.08,849.441L3301.88,849.252L3301.68,849.06L3301.49,848.868L3301.31,848.666L3301.12,848.459L3300.95,848.249L3300.78,848.038L3300.62,847.822L3300.46,847.605L3300.3,847.378L3300.15,847.149L3300.01,846.916L3299.88,846.681L3299.75,846.453L3299.63,846.214L3299.51,845.966L3299.39,845.718L3299.29,845.474L3299.19,845.229L3299.09,844.976L3299,844.713L3298.92,844.456L3298.85,844.199L3298.78,843.933L3298.72,843.674L3298.66,843.415L3298.61,843.147L3298.57,842.87L3298.53,842.602L3298.5,842.342L3298.47,842.064L3298.46,841.787L3298.45,841.519L3298.45,841.287L3298.45,834.02L3298.45,833.78L3298.46,833.496L3298.48,833.22L3298.5,832.943L3298.53,832.665L3298.57,832.387L3298.62,832.108L3298.67,831.837L3298.73,831.576L3298.79,831.306L3298.87,831.036L3298.94,830.775L3299.03,830.523L3299.12,830.263L3299.22,830.005L3299.32,829.756L3299.43,829.508L3299.54,829.269L3299.66,829.023L3299.79,828.781L3299.91,828.554L3300.05,828.328L3300.19,828.097L3300.34,827.876L3300.49,827.657L3300.65,827.44L3300.81,827.233L3300.97,827.027L3301.14,826.823L3301.32,826.626L3301.5,826.428L3301.69,826.24L3301.87,826.06L3302.06,825.882L3302.26,825.704L3302.47,825.529L3302.67,825.366L3302.88,825.204L3303.1,825.049L3303.31,824.898L3303.54,824.748L3303.76,824.609L3303.99,824.474L3304.23,824.344L3304.46,824.218L3304.7,824.099L3304.95,823.985L3305.2,823.876L3305.45,823.773L3305.7,823.676L3305.95,823.588L3306.22,823.502L3306.48,823.424L3306.74,823.353L3307.01,823.287L3307.28,823.228L3307.56,823.176L3307.83,823.131L3308.1,823.092L3308.38,823.061L3308.66,823.036L3308.94,823.018L3309.22,823.008L3309.46,823.005L3346.87,823.005L3347.11,823.008L3347.39,823.018ZM3567.15,835.657L3566.98,835.658L3566.8,835.661L3566.62,835.665L3566.44,835.669L3566.26,835.675L3566.09,835.681L3565.91,835.689L3565.73,835.698L3565.56,835.707L3565.38,835.718L3565.21,835.729L3565.03,835.742L3564.86,835.755L3564.69,835.77L3564.51,835.785L3564.34,835.802L3564.17,835.819L3564,835.838L3563.83,835.857L3563.66,835.877L3563.49,835.898L3563.32,835.921L3563.15,835.944L3562.98,835.967L3562.81,835.993L3562.64,836.019L3562.48,836.045L3562.31,836.073L3562.15,836.102L3561.98,836.131L3561.82,836.162L3561.65,836.193L3561.49,836.225L3561.32,836.259L3561.16,836.293L3561,836.328L3560.84,836.364L3560.67,836.401L3560.51,836.438L3560.35,836.477L3560.19,836.516L3560.03,836.556L3559.88,836.597L3559.72,836.64L3559.56,836.683L3559.4,836.726L3559.24,836.771L3559.09,836.816L3558.93,836.862L3558.78,836.909L3558.62,836.958L3558.47,837.007L3558.31,837.056L3558.16,837.106L3558.01,837.158L3557.86,837.21L3557.71,837.263L3557.56,837.317L3557.41,837.372L3557.25,837.427L3557.11,837.483L3556.96,837.54L3556.81,837.598L3556.66,837.657L3556.51,837.716L3556.37,837.776L3556.22,837.837L3556.08,837.899L3555.93,837.961L3555.79,838.026L3555.64,838.09L3555.5,838.154L3555.36,838.22L3555.22,838.286L3555.08,838.354L3554.93,838.423L3554.8,838.491L3554.66,838.56L3554.52,838.63L3554.38,838.702L3554.24,838.774L3554.11,838.846L3553.97,838.918L3553.83,838.993L3553.7,839.068L3553.56,839.144L3553.43,839.22L3553.3,839.297L3553.16,839.374L3553.03,839.453L3552.9,839.533L3552.77,839.611L3552.64,839.692L3552.51,839.775L3552.38,839.857L3552.25,839.938L3552.12,840.022L3551.99,840.106L3551.87,840.19L3551.74,840.276L3551.61,840.364L3551.49,840.45L3551.37,840.536L3551.24,840.625L3551.12,840.715L3551,840.803L3550.88,840.893L3550.75,840.986L3550.64,841.077L3550.52,841.169L3550.4,841.263L3550.28,841.355L3550.16,841.449L3550.04,841.545L3549.93,841.64L3549.81,841.736L3549.7,841.834L3549.58,841.932L3549.47,842.029L3549.36,842.128L3549.24,842.227L3549.13,842.327L3549.02,842.429L3548.91,842.53L3548.8,842.63L3548.69,842.733L3548.58,842.838L3548.48,842.94L3548.37,843.045L3548.26,843.153L3548.16,843.257L3548.06,843.361L3547.95,843.469L3547.84,843.579L3547.74,843.685L3547.64,843.792L3547.54,843.905L3547.44,844.013L3547.34,844.122L3547.24,844.234L3547.14,844.347L3547.04,844.461L3546.95,844.573L3546.85,844.685L3546.76,844.798L3546.66,844.913L3546.57,845.028L3546.47,845.143L3546.38,845.261L3546.29,845.38L3546.2,845.497L3546.11,845.611L3546.02,845.732L3545.93,845.851L3545.84,845.97L3545.75,846.093L3545.67,846.21L3545.58,846.332L3545.49,846.457L3545.41,846.579L3545.33,846.699L3545.25,846.823L3545.16,846.947L3545.08,847.072L3545,847.198L3544.92,847.325L3544.84,847.452L3544.76,847.576L3544.69,847.704L3544.61,847.829L3544.54,847.959L3544.46,848.089L3544.39,848.22L3544.31,848.351L3544.24,848.476L3544.17,848.61L3544.1,848.743L3544.03,848.873L3543.96,849.004L3543.89,849.139L3543.82,849.275L3543.75,849.404L3543.69,849.541L3543.62,849.679L3543.56,849.81L3543.49,849.945L3543.43,850.085L3543.37,850.221L3543.31,850.359L3543.24,850.5L3543.18,850.638L3543.13,850.774L3543.07,850.913L3543.01,851.053L3542.95,851.194L3542.9,851.339L3542.84,851.481L3542.79,851.62L3542.74,851.759L3542.68,851.903L3542.63,852.051L3542.58,852.196L3542.53,852.338L3542.48,852.48L3542.44,852.627L3542.39,852.775L3542.34,852.922L3542.3,853.067L3542.25,853.212L3542.21,853.366L3542.17,853.513L3542.13,853.66L3542.08,853.811L3542.04,853.96L3542.01,854.108L3541.97,854.257L3541.93,854.412L3541.89,854.566L3541.86,854.713L3541.82,854.865L3541.79,855.021L3541.76,855.174L3541.72,855.328L3541.69,855.486L3541.66,855.641L3541.63,855.792L3541.61,855.947L3541.58,856.108L3541.55,856.265L3541.53,856.419L3541.5,856.577L3541.48,856.736L3541.46,856.895L3541.43,857.055L3541.41,857.211L3541.39,857.373L3541.38,857.534L3541.36,857.696L3541.34,857.859L3541.33,858.019L3541.31,858.178L3541.3,858.343L3541.28,858.508L3541.27,858.67L3541.26,858.836L3541.25,858.999L3541.24,859.162L3541.24,859.33L3541.23,859.499L3541.22,859.664L3541.22,859.83L3541.22,859.996L3541.21,860.163L3541.21,860.334L3541.21,860.502L3541.21,860.668L3541.21,860.838L3541.22,861.002L3541.22,861.166L3541.22,861.334L3541.23,861.497L3541.24,861.659L3541.24,861.821L3541.25,861.987L3541.26,862.152L3541.27,862.312L3541.28,862.476L3541.3,862.635L3541.31,862.793L3541.33,862.955L3541.34,863.116L3541.36,863.277L3541.38,863.438L3541.39,863.593L3541.41,863.752L3541.43,863.911L3541.45,864.065L3541.48,864.226L3541.5,864.383L3541.52,864.535L3541.55,864.691L3541.58,864.846L3541.6,865.001L3541.63,865.159L3541.66,865.312L3541.69,865.461L3541.72,865.613L3541.75,865.769L3541.78,865.92L3541.82,866.071L3541.85,866.225L3541.89,866.37L3541.93,866.523L3541.96,866.675L3542,866.819L3542.04,866.97L3542.08,867.12L3542.12,867.266L3542.16,867.411L3542.2,867.56L3542.25,867.704L3542.29,867.848L3542.34,867.999L3542.38,868.145L3542.43,868.287L3542.47,868.428L3542.52,868.573L3542.57,868.717L3542.63,868.86L3542.68,869.003L3542.73,869.141L3542.78,869.283L3542.83,869.424L3542.89,869.564L3542.94,869.704L3543,869.843L3543.06,869.982L3543.12,870.12L3543.17,870.258L3543.23,870.394L3543.29,870.531L3543.35,870.666L3543.42,870.805L3543.48,870.94L3543.54,871.074L3543.61,871.207L3543.67,871.34L3543.74,871.475L3543.81,871.607L3543.87,871.738L3543.94,871.871L3544.01,872.005L3544.08,872.134L3544.15,872.262L3544.22,872.394L3544.3,872.525L3544.37,872.651L3544.44,872.777L3544.52,872.906L3544.59,873.034L3544.67,873.162L3544.75,873.289L3544.82,873.412L3544.9,873.537L3544.98,873.662L3545.06,873.784L3545.14,873.908L3545.23,874.035L3545.31,874.157L3545.39,874.276L3545.47,874.398L3545.56,874.518L3545.64,874.638L3545.73,874.761L3545.82,874.88L3545.91,874.995L3545.99,875.115L3546.08,875.232L3546.17,875.349L3546.27,875.468L3546.36,875.582L3546.45,875.696L3546.54,875.811L3546.64,875.927L3546.73,876.039L3546.82,876.151L3546.92,876.265L3547.02,876.378L3547.12,876.488L3547.21,876.597L3547.31,876.712L3547.41,876.82L3547.51,876.927L3547.61,877.036L3547.71,877.144L3547.82,877.253L3547.92,877.358L3548.02,877.464L3548.13,877.57L3548.23,877.676L3548.34,877.78L3548.44,877.882L3548.55,877.985L3548.66,878.088L3548.77,878.189L3548.88,878.292L3548.99,878.393L3549.1,878.491L3549.21,878.59L3549.32,878.69L3549.43,878.788L3549.55,878.885L3549.66,878.982L3549.78,879.078L3549.89,879.174L3550.01,879.269L3550.12,879.362L3550.24,879.457L3550.36,879.549L3550.48,879.643L3550.6,879.733L3550.72,879.824L3550.84,879.915L3550.96,880.005L3551.08,880.094L3551.2,880.181L3551.33,880.269L3551.45,880.356L3551.58,880.442L3551.7,880.529L3551.83,880.614L3551.95,880.696L3552.08,880.78L3552.21,880.864L3552.34,880.947L3552.47,881.027L3552.6,881.108L3552.73,881.188L3552.86,881.268L3552.99,881.346L3553.12,881.424L3553.25,881.501L3553.39,881.578L3553.52,881.654L3553.66,881.73L3553.79,881.802L3553.93,881.875L3554.07,881.951L3554.2,882.022L3554.34,882.093L3554.48,882.164L3554.62,882.234L3554.75,882.303L3554.89,882.371L3555.03,882.438L3555.18,882.506L3555.32,882.572L3555.46,882.637L3555.6,882.701L3555.75,882.766L3555.89,882.829L3556.04,882.891L3556.18,882.952L3556.32,883.012L3556.47,883.073L3556.62,883.133L3556.77,883.19L3556.91,883.248L3557.06,883.305L3557.21,883.36L3557.36,883.416L3557.51,883.47L3557.66,883.524L3557.81,883.576L3557.97,883.628L3558.12,883.68L3558.27,883.73L3558.43,883.779L3558.58,883.828L3558.74,883.876L3558.89,883.922L3559.04,883.968L3559.2,884.014L3559.36,884.058L3559.51,884.101L3559.67,884.144L3559.83,884.186L3559.99,884.227L3560.15,884.267L3560.31,884.306L3560.47,884.344L3560.63,884.382L3560.79,884.419L3560.95,884.454L3561.12,884.489L3561.28,884.523L3561.44,884.556L3561.61,884.588L3561.77,884.619L3561.94,884.65L3562.1,884.679L3562.27,884.708L3562.44,884.735L3562.6,884.762L3562.77,884.788L3562.94,884.813L3563.11,884.837L3563.28,884.86L3563.45,884.882L3563.62,884.903L3563.79,884.923L3563.96,884.942L3564.13,884.961L3564.3,884.978L3564.47,884.994L3564.65,885.009L3564.82,885.024L3564.99,885.038L3565.17,885.05L3565.34,885.062L3565.52,885.072L3565.69,885.082L3565.87,885.09L3566.05,885.098L3566.22,885.104L3566.4,885.11L3566.58,885.114L3566.76,885.118L3566.94,885.121L3567.12,885.122L3567.3,885.123L3567.48,885.122L3567.66,885.121L3567.84,885.118L3568.01,885.114L3568.19,885.11L3568.37,885.104L3568.55,885.098L3568.73,885.09L3568.9,885.082L3569.08,885.072L3569.26,885.061L3569.43,885.05L3569.61,885.037L3569.78,885.024L3569.95,885.009L3570.13,884.994L3570.3,884.978L3570.47,884.96L3570.64,884.942L3570.82,884.923L3570.99,884.902L3571.16,884.881L3571.33,884.859L3571.5,884.836L3571.67,884.812L3571.84,884.788L3572,884.762L3572.17,884.735L3572.34,884.707L3572.51,884.679L3572.67,884.649L3572.84,884.619L3573,884.588L3573.17,884.555L3573.33,884.522L3573.49,884.488L3573.66,884.453L3573.82,884.418L3573.98,884.381L3574.14,884.344L3574.3,884.305L3574.47,884.266L3574.62,884.226L3574.78,884.185L3574.94,884.143L3575.1,884.1L3575.26,884.057L3575.42,884.012L3575.57,883.967L3575.73,883.921L3575.89,883.874L3576.04,883.826L3576.2,883.778L3576.35,883.728L3576.5,883.678L3576.66,883.627L3576.81,883.575L3576.96,883.522L3577.11,883.469L3577.26,883.414L3577.41,883.359L3577.56,883.303L3577.71,883.246L3577.86,883.188L3578.01,883.13L3578.15,883.071L3578.3,883.01L3578.45,882.95L3578.59,882.889L3578.74,882.826L3578.88,882.763L3579.03,882.7L3579.17,882.635L3579.31,882.569L3579.45,882.503L3579.6,882.436L3579.74,882.369L3579.88,882.3L3580.02,882.23L3580.16,882.161L3580.3,882.09L3580.43,882.019L3580.57,881.947L3580.71,881.873L3580.84,881.8L3580.98,881.727L3581.12,881.65L3581.25,881.574L3581.38,881.498L3581.52,881.421L3581.65,881.343L3581.78,881.264L3581.91,881.184L3582.04,881.104L3582.17,881.023L3582.3,880.941L3582.43,880.859L3582.56,880.776L3582.68,880.694L3582.81,880.609L3582.94,880.523L3583.06,880.439L3583.19,880.352L3583.31,880.265L3583.44,880.178L3583.56,880.088L3583.68,879.999L3583.8,879.91L3583.93,879.82L3584.05,879.729L3584.17,879.636L3584.28,879.546L3584.4,879.451L3584.52,879.357L3584.64,879.263L3584.76,879.169L3584.87,879.074L3584.99,878.976L3585.1,878.879L3585.21,878.782L3585.33,878.685L3585.44,878.586L3585.55,878.487L3585.66,878.387L3585.77,878.284L3585.88,878.183L3585.99,878.083L3586.1,877.981L3586.21,877.877L3586.31,877.773L3586.42,877.669L3586.53,877.563L3586.63,877.457L3586.73,877.353L3586.84,877.246L3586.94,877.137L3587.04,877.029L3587.14,876.922L3587.24,876.815L3587.34,876.702L3587.44,876.592L3587.54,876.483L3587.64,876.37L3587.73,876.26L3587.83,876.146L3587.93,876.031L3588.02,875.922L3588.12,875.805L3588.21,875.688L3588.3,875.577L3588.39,875.459L3588.48,875.343L3588.57,875.227L3588.66,875.107L3588.75,874.989L3588.84,874.874L3588.93,874.755L3589.01,874.632L3589.1,874.512L3589.18,874.392L3589.27,874.27L3589.35,874.148L3589.43,874.025L3589.52,873.902L3589.6,873.778L3589.68,873.656L3589.76,873.531L3589.84,873.406L3589.91,873.282L3589.99,873.155L3590.07,873.028L3590.14,872.899L3590.22,872.77L3590.29,872.645L3590.37,872.518L3590.44,872.387L3590.51,872.255L3590.58,872.127L3590.65,871.998L3590.72,871.864L3590.79,871.734L3590.86,871.603L3590.93,871.468L3590.99,871.332L3591.06,871.2L3591.12,871.07L3591.18,870.932L3591.25,870.794L3591.31,870.663L3591.37,870.527L3591.43,870.387L3591.49,870.25L3591.55,870.117L3591.61,869.978L3591.67,869.836L3591.72,869.697L3591.78,869.56L3591.83,869.42L3591.89,869.279L3591.94,869.137L3591.99,868.995L3592.04,868.852L3592.09,868.709L3592.14,868.569L3592.19,868.424L3592.24,868.283L3592.28,868.137L3592.33,867.991L3592.38,867.848L3592.42,867.7L3592.46,867.556L3592.51,867.407L3592.55,867.262L3592.59,867.116L3592.63,866.966L3592.67,866.815L3592.71,866.667L3592.74,866.519L3592.78,866.37L3592.81,866.221L3592.85,866.067L3592.88,865.916L3592.91,865.765L3592.95,865.609L3592.98,865.457L3593.01,865.308L3593.04,865.155L3593.06,865.001L3593.09,864.842L3593.12,864.687L3593.14,864.535L3593.17,864.379L3593.19,864.222L3593.21,864.065L3593.24,863.907L3593.26,863.748L3593.27,863.593L3593.29,863.433L3593.31,863.273L3593.33,863.116L3593.34,862.955L3593.36,862.793L3593.37,862.635L3593.38,862.476L3593.4,862.312L3593.41,862.148L3593.42,861.983L3593.43,861.821L3593.43,861.659L3593.44,861.497L3593.45,861.334L3593.45,861.166L3593.45,860.998L3593.46,860.833L3593.46,860.668L3593.46,860.502L3593.46,860.334L3593.46,860.167L3593.45,860L3593.45,859.83L3593.45,859.66L3593.44,859.495L3593.43,859.33L3593.43,859.167L3593.42,859.003L3593.41,858.836L3593.39,858.67L3593.38,858.504L3593.37,858.343L3593.36,858.183L3593.34,858.019L3593.33,857.855L3593.31,857.696L3593.29,857.534L3593.27,857.373L3593.25,857.216L3593.23,857.055L3593.21,856.895L3593.19,856.736L3593.17,856.577L3593.14,856.419L3593.12,856.261L3593.09,856.108L3593.06,855.952L3593.03,855.792L3593.01,855.636L3592.97,855.482L3592.94,855.328L3592.91,855.174L3592.88,855.021L3592.85,854.869L3592.81,854.717L3592.78,854.562L3592.74,854.412L3592.7,854.262L3592.66,854.108L3592.63,853.96L3592.59,853.811L3592.54,853.66L3592.5,853.509L3592.46,853.362L3592.42,853.216L3592.37,853.067L3592.33,852.922L3592.28,852.775L3592.23,852.627L3592.18,852.484L3592.14,852.338L3592.09,852.192L3592.03,852.047L3591.99,851.907L3591.93,851.763L3591.88,851.62L3591.83,851.477L3591.77,851.335L3591.72,851.198L3591.66,851.057L3591.6,850.913L3591.54,850.774L3591.48,850.634L3591.42,850.496L3591.37,850.362L3591.3,850.221L3591.24,850.085L3591.18,849.949L3591.11,849.81L3591.05,849.675L3590.98,849.541L3590.92,849.408L3590.85,849.271L3590.78,849.139L3590.71,849.007L3590.64,848.873L3590.57,848.739L3590.5,848.61L3590.43,848.48L3590.36,848.348L3590.28,848.22L3590.21,848.089L3590.13,847.959L3590.06,847.833L3589.98,847.704L3589.9,847.576L3589.82,847.448L3589.75,847.325L3589.67,847.198L3589.59,847.072L3589.5,846.947L3589.42,846.823L3589.34,846.702L3589.26,846.579L3589.17,846.454L3589.09,846.332L3589,846.213L3588.91,846.09L3588.83,845.97L3588.74,845.851L3588.65,845.732L3588.56,845.614L3588.47,845.494L3588.38,845.377L3588.29,845.261L3588.2,845.146L3588.1,845.03L3588.01,844.913L3587.91,844.798L3587.82,844.685L3587.72,844.573L3587.62,844.458L3587.52,844.345L3587.43,844.234L3587.33,844.125L3587.23,844.013L3587.13,843.902L3587.03,843.795L3586.93,843.685L3586.82,843.576L3586.72,843.471L3586.62,843.363L3586.51,843.257L3586.41,843.151L3586.3,843.045L3586.19,842.943L3586.09,842.838L3585.97,842.733L3585.87,842.63L3585.76,842.53L3585.65,842.427L3585.54,842.327L3585.43,842.229L3585.31,842.128L3585.2,842.029L3585.09,841.932L3584.97,841.833L3584.86,841.736L3584.74,841.64L3584.63,841.545L3584.51,841.451L3584.39,841.355L3584.27,841.261L3584.15,841.169L3584.03,841.077L3583.91,840.985L3583.79,840.894L3583.67,840.805L3583.55,840.715L3583.43,840.625L3583.3,840.536L3583.18,840.45L3583.05,840.363L3582.93,840.276L3582.8,840.191L3582.68,840.106L3582.55,840.022L3582.42,839.938L3582.29,839.856L3582.16,839.775L3582.03,839.693L3581.9,839.611L3581.77,839.532L3581.64,839.453L3581.51,839.375L3581.37,839.297L3581.24,839.219L3581.11,839.143L3580.97,839.068L3580.84,838.993L3580.7,838.919L3580.57,838.847L3580.43,838.773L3580.29,838.702L3580.15,838.631L3580.01,838.56L3579.87,838.491L3579.73,838.422L3579.59,838.354L3579.45,838.287L3579.31,838.22L3579.16,838.154L3579.02,838.089L3578.88,838.025L3578.74,837.962L3578.59,837.899L3578.45,837.837L3578.3,837.777L3578.15,837.716L3578.01,837.657L3577.86,837.598L3577.71,837.54L3577.56,837.483L3577.41,837.427L3577.26,837.371L3577.11,837.317L3576.96,837.263L3576.81,837.21L3576.66,837.158L3576.51,837.107L3576.35,837.056L3576.2,837.006L3576.05,836.958L3575.89,836.91L3575.74,836.862L3575.58,836.816L3575.42,836.771L3575.27,836.726L3575.11,836.683L3574.95,836.64L3574.79,836.597L3574.63,836.556L3574.47,836.516L3574.32,836.477L3574.15,836.438L3573.99,836.4L3573.83,836.364L3573.67,836.328L3573.51,836.293L3573.34,836.259L3573.18,836.225L3573.02,836.193L3572.85,836.162L3572.69,836.131L3572.52,836.102L3572.36,836.073L3572.19,836.045L3572.02,836.019L3571.86,835.993L3571.69,835.968L3571.52,835.944L3571.35,835.921L3571.18,835.898L3571.01,835.877L3570.84,835.857L3570.67,835.838L3570.5,835.819L3570.33,835.802L3570.15,835.785L3569.98,835.77L3569.81,835.755L3569.63,835.742L3569.46,835.729L3569.29,835.718L3569.11,835.707L3568.93,835.698L3568.76,835.689L3568.58,835.681L3568.4,835.675L3568.23,835.669L3568.05,835.665L3567.87,835.661L3567.69,835.658L3567.51,835.657L3567.33,835.656L3567.15,835.657ZM3567.64,836.681L3567.95,836.687L3568.26,836.696L3568.57,836.708L3568.87,836.725L3569.18,836.744L3569.48,836.768L3569.78,836.795L3570.09,836.825L3570.39,836.859L3570.69,836.896L3570.99,836.937L3571.28,836.982L3571.58,837.03L3571.88,837.081L3572.17,837.136L3572.47,837.194L3572.76,837.256L3573.05,837.321L3573.34,837.39L3573.63,837.461L3573.92,837.537L3574.2,837.615L3574.49,837.697L3574.77,837.782L3575.05,837.871L3575.33,837.963L3575.61,838.057L3575.89,838.155L3576.16,838.257L3576.44,838.362L3576.71,838.47L3576.98,838.581L3577.25,838.695L3577.52,838.812L3577.79,838.932L3578.05,839.056L3578.31,839.183L3578.57,839.312L3578.83,839.445L3579.09,839.581L3579.34,839.719L3579.6,839.861L3579.85,840.005L3580.1,840.153L3580.35,840.304L3580.59,840.457L3580.83,840.613L3581.07,840.772L3581.31,840.935L3581.55,841.099L3581.78,841.266L3582.02,841.438L3582.25,841.61L3582.47,841.786L3582.7,841.966L3582.92,842.146L3583.14,842.329L3583.36,842.517L3583.58,842.705L3583.79,842.897L3584.01,843.094L3584.21,843.288L3584.42,843.489L3584.63,843.692L3584.83,843.896L3585.03,844.103L3585.22,844.31L3585.42,844.522L3585.61,844.739L3585.8,844.955L3585.99,845.173L3586.17,845.397L3586.35,845.619L3586.53,845.845L3586.7,846.074L3586.87,846.302L3587.05,846.538L3587.21,846.772L3587.38,847.009L3587.54,847.249L3587.7,847.489L3587.85,847.734L3588.01,847.981L3588.15,848.225L3588.3,848.474L3588.44,848.729L3588.58,848.982L3588.72,849.236L3588.86,849.495L3588.99,849.752L3589.12,850.015L3589.24,850.278L3589.36,850.54L3589.48,850.809L3589.59,851.077L3589.71,851.346L3589.82,851.62L3589.92,851.894L3590.02,852.17L3590.12,852.444L3590.22,852.719L3590.31,853.002L3590.4,853.282L3590.48,853.564L3590.57,853.85L3590.64,854.133L3590.72,854.421L3590.79,854.71L3590.86,855L3590.92,855.291L3590.98,855.582L3591.04,855.874L3591.09,856.167L3591.14,856.46L3591.19,856.758L3591.23,857.061L3591.27,857.356L3591.31,857.656L3591.34,857.956L3591.37,858.256L3591.39,858.561L3591.41,858.863L3591.43,859.168L3591.44,859.47L3591.45,859.776L3591.45,860.083L3591.46,860.39L3591.45,860.696L3591.45,861.002L3591.44,861.307L3591.43,861.609L3591.41,861.914L3591.39,862.215L3591.37,862.519L3591.34,862.819L3591.31,863.119L3591.27,863.418L3591.23,863.712L3591.19,864.015L3591.14,864.312L3591.09,864.605L3591.04,864.897L3590.98,865.189L3590.92,865.48L3590.86,865.77L3590.79,866.059L3590.72,866.347L3590.64,866.635L3590.56,866.918L3590.48,867.203L3590.39,867.485L3590.31,867.764L3590.21,868.047L3590.12,868.321L3590.02,868.594L3589.92,868.869L3589.81,869.144L3589.7,869.417L3589.59,869.685L3589.47,869.952L3589.36,870.221L3589.23,870.482L3589.11,870.745L3588.98,871.007L3588.85,871.263L3588.71,871.522L3588.58,871.775L3588.44,872.027L3588.29,872.281L3588.14,872.53L3588,872.774L3587.84,873.02L3587.69,873.263L3587.53,873.503L3587.37,873.743L3587.2,873.979L3587.04,874.212L3586.87,874.447L3586.69,874.675L3586.52,874.902L3586.34,875.129L3586.16,875.35L3585.97,875.572L3585.79,875.79L3585.6,876.005L3585.41,876.221L3585.21,876.432L3585.02,876.639L3584.82,876.846L3584.62,877.047L3584.41,877.25L3584.2,877.451L3583.99,877.644L3583.78,877.84L3583.57,878.03L3583.35,878.219L3583.13,878.405L3582.91,878.587L3582.69,878.767L3582.46,878.946L3582.23,879.122L3582,879.293L3581.77,879.463L3581.53,879.63L3581.3,879.793L3581.06,879.955L3580.82,880.113L3580.58,880.269L3580.33,880.421L3580.08,880.571L3579.83,880.718L3579.58,880.862L3579.33,881.003L3579.08,881.14L3578.82,881.276L3578.56,881.408L3578.3,881.536L3578.04,881.662L3577.77,881.786L3577.51,881.905L3577.24,882.021L3576.97,882.135L3576.7,882.245L3576.43,882.353L3576.15,882.457L3575.88,882.557L3575.6,882.655L3575.32,882.749L3575.04,882.841L3574.76,882.929L3574.48,883.013L3574.19,883.095L3573.91,883.172L3573.62,883.247L3573.33,883.319L3573.04,883.387L3572.75,883.452L3572.46,883.513L3572.17,883.571L3571.87,883.625L3571.58,883.676L3571.28,883.724L3570.98,883.768L3570.68,883.809L3570.38,883.846L3570.08,883.88L3569.78,883.91L3569.48,883.937L3569.17,883.96L3568.87,883.979L3568.56,883.995L3568.26,884.008L3567.95,884.017L3567.64,884.022L3567.33,884.024L3567.03,884.022L3566.72,884.017L3566.41,884.008L3566.11,883.995L3565.8,883.979L3565.49,883.96L3565.19,883.937L3564.89,883.91L3564.59,883.88L3564.29,883.846L3563.99,883.809L3563.69,883.768L3563.39,883.724L3563.09,883.676L3562.8,883.625L3562.5,883.571L3562.21,883.513L3561.92,883.451L3561.63,883.387L3561.34,883.319L3561.05,883.247L3560.76,883.173L3560.47,883.095L3560.19,883.013L3559.91,882.929L3559.63,882.841L3559.35,882.749L3559.07,882.655L3558.79,882.557L3558.51,882.456L3558.24,882.353L3557.97,882.246L3557.7,882.135L3557.43,882.021L3557.16,881.905L3556.89,881.785L3556.63,881.662L3556.37,881.536L3556.11,881.408L3555.85,881.276L3555.59,881.14L3555.34,881.003L3555.09,880.862L3554.83,880.718L3554.58,880.57L3554.34,880.421L3554.09,880.27L3553.85,880.113L3553.61,879.955L3553.37,879.793L3553.13,879.628L3552.9,879.463L3552.67,879.294L3552.43,879.12L3552.21,878.946L3551.98,878.768L3551.76,878.587L3551.54,878.405L3551.32,878.219L3551.1,878.028L3550.89,877.84L3550.68,877.646L3550.46,877.448L3550.26,877.25L3550.05,877.05L3549.85,876.846L3549.65,876.639L3549.46,876.432L3549.26,876.221L3549.07,876.005L3548.88,875.79L3548.69,875.572L3548.51,875.35L3548.33,875.126L3548.15,874.902L3547.98,874.677L3547.8,874.444L3547.63,874.212L3547.47,873.979L3547.3,873.743L3547.14,873.506L3546.98,873.263L3546.82,873.02L3546.67,872.774L3546.52,872.53L3546.38,872.281L3546.23,872.027L3546.09,871.775L3545.95,871.522L3545.82,871.263L3545.69,871.007L3545.56,870.745L3545.43,870.482L3545.31,870.218L3545.19,869.952L3545.08,869.685L3544.97,869.413L3544.86,869.144L3544.75,868.873L3544.65,868.598L3544.55,868.321L3544.45,868.043L3544.36,867.764L3544.27,867.485L3544.19,867.203L3544.11,866.918L3544.03,866.631L3543.95,866.347L3543.88,866.063L3543.81,865.774L3543.75,865.48L3543.69,865.189L3543.63,864.897L3543.58,864.605L3543.53,864.308L3543.48,864.011L3543.44,863.716L3543.4,863.418L3543.36,863.119L3543.33,862.819L3543.3,862.519L3543.28,862.219L3543.26,861.914L3543.24,861.609L3543.23,861.307L3543.22,861.002L3543.21,860.696L3543.21,860.39L3543.21,860.083L3543.22,859.776L3543.23,859.47L3543.24,859.168L3543.26,858.863L3543.28,858.557L3543.3,858.256L3543.33,857.956L3543.36,857.656L3543.4,857.356L3543.44,857.057L3543.48,856.762L3543.53,856.464L3543.58,856.167L3543.63,855.874L3543.69,855.582L3543.75,855.291L3543.81,854.996L3543.88,854.706L3543.95,854.421L3544.03,854.137L3544.1,853.85L3544.19,853.564L3544.27,853.282L3544.36,853.002L3544.45,852.722L3544.55,852.444L3544.65,852.166L3544.75,851.89L3544.85,851.62L3544.96,851.35L3545.07,851.077L3545.19,850.809L3545.31,850.543L3545.43,850.278L3545.55,850.015L3545.68,849.752L3545.81,849.495L3545.95,849.236L3546.08,848.982L3546.22,848.729L3546.37,848.474L3546.52,848.225L3546.66,847.981L3546.82,847.734L3546.97,847.489L3547.13,847.246L3547.29,847.009L3547.46,846.772L3547.62,846.538L3547.79,846.305L3547.97,846.072L3548.14,845.845L3548.32,845.621L3548.5,845.397L3548.68,845.173L3548.87,844.955L3549.06,844.739L3549.25,844.522L3549.45,844.31L3549.64,844.103L3549.84,843.896L3550.04,843.69L3550.25,843.489L3550.45,843.29L3550.66,843.092L3550.88,842.897L3551.09,842.707L3551.3,842.517L3551.52,842.329L3551.74,842.146L3551.97,841.964L3552.19,841.786L3552.42,841.611L3552.65,841.437L3552.89,841.266L3553.12,841.1L3553.36,840.935L3553.6,840.772L3553.84,840.613L3554.08,840.456L3554.32,840.304L3554.57,840.154L3554.82,840.005L3555.07,839.861L3555.33,839.719L3555.58,839.581L3555.84,839.445L3556.1,839.312L3556.36,839.182L3556.62,839.056L3556.88,838.933L3557.15,838.812L3557.42,838.695L3557.68,838.581L3557.96,838.47L3558.23,838.362L3558.5,838.257L3558.78,838.155L3559.06,838.057L3559.34,837.963L3559.62,837.871L3559.9,837.782L3560.18,837.697L3560.47,837.615L3560.75,837.537L3561.04,837.461L3561.33,837.39L3561.62,837.321L3561.91,837.256L3562.2,837.194L3562.5,837.136L3562.79,837.081L3563.09,837.03L3563.38,836.982L3563.68,836.937L3563.98,836.896L3564.28,836.859L3564.58,836.825L3564.89,836.795L3565.19,836.768L3565.49,836.744L3565.8,836.725L3566.1,836.708L3566.41,836.696L3566.72,836.687L3567.03,836.681L3567.33,836.68L3567.64,836.681ZM3494.84,837.272L3494.84,838.033L3509.38,838.033L3509.38,883.582L3511.23,883.582L3511.23,838.033L3525.74,838.033L3525.74,837.272L3494.84,837.272ZM3471.91,837.272L3471.91,883.582L3473.72,883.582L3473.72,837.272L3471.91,837.272ZM3443.32,837.272L3430.51,859.451L3444.25,883.582L3445.9,883.582L3430.96,859.177L3444.71,837.272L3443.32,837.272ZM3415.13,837.272L3428.83,859.22L3413.96,883.582L3415.62,883.582L3429.36,859.347L3416.57,837.272L3415.13,837.272ZM3389.73,837.957L3389.73,837.272L3364.73,837.272L3364.73,883.582L3389.73,883.582L3389.73,882.784L3366.35,882.784L3366.35,837.957L3389.73,837.957ZM3312.71,837.272L3312.71,838.033L3327.26,838.033L3327.26,883.582L3329.11,883.582L3329.11,838.033L3343.61,838.033L3343.61,837.272L3312.71,837.272ZM3447.74,859.272L3457.64,875.439L3457.64,843.511L3447.74,859.272ZM3403.22,845.224L3403.12,845.474L3403.01,845.723L3402.9,845.962L3402.78,846.206L3402.65,846.449L3402.53,846.677L3402.39,846.902L3402.25,847.133L3402.1,847.354L3401.95,847.572L3401.79,847.789L3401.63,847.997L3401.47,848.207L3401.29,848.411L3401.12,848.6L3400.94,848.796L3400.75,848.99L3400.57,849.171L3400.37,849.352L3400.18,849.526L3399.98,849.696L3399.77,849.863L3399.56,850.026L3399.34,850.185L3399.13,850.332L3398.9,850.478L3398.67,850.622L3398.45,850.756L3398.21,850.886L3397.97,851.013L3397.83,851.086L3397.85,851.114L3398,851.341L3398.15,851.57L3398.3,851.802L3398.43,852.029L3398.56,852.266L3398.68,852.512L3398.8,852.751L3398.91,852.993L3399.02,853.244L3399.12,853.497L3399.21,853.743L3399.3,854.006L3399.38,854.262L3399.46,854.519L3399.53,854.785L3399.59,855.044L3399.64,855.303L3399.7,855.571L3399.74,855.848L3399.78,856.117L3399.81,856.377L3399.83,856.654L3399.85,856.932L3399.86,857.2L3399.86,857.431L3399.86,863.085L3399.86,863.316L3399.85,863.584L3399.83,863.862L3399.81,864.139L3399.78,864.399L3399.74,864.668L3399.7,864.945L3399.64,865.213L3399.59,865.472L3399.53,865.73L3399.46,865.997L3399.38,866.254L3399.3,866.509L3399.21,866.773L3399.12,867.02L3399.02,867.271L3398.91,867.522L3398.8,867.764L3398.68,868.005L3398.56,868.25L3398.43,868.486L3398.3,868.714L3398.15,868.946L3398,869.175L3397.85,869.402L3397.71,869.597L3397.74,869.612L3397.98,869.73L3398.21,869.854L3398.45,869.985L3398.68,870.121L3398.9,870.262L3399.13,870.409L3399.34,870.558L3399.56,870.716L3399.77,870.877L3399.97,871.045L3400.18,871.216L3400.37,871.389L3400.57,871.571L3400.75,871.751L3400.94,871.945L3401.13,872.142L3401.29,872.33L3401.46,872.533L3401.63,872.744L3401.79,872.952L3401.95,873.169L3402.1,873.388L3402.25,873.608L3402.39,873.839L3402.53,874.065L3402.65,874.292L3402.78,874.522L3412.07,859.305L3403.24,845.178L3403.22,845.224ZM3567.19,850.948L3567.05,850.951L3566.91,850.955L3566.78,850.961L3566.64,850.968L3566.5,850.977L3566.37,850.987L3566.23,850.999L3566.1,851.013L3565.96,851.028L3565.83,851.044L3565.7,851.062L3565.57,851.081L3565.44,851.102L3565.31,851.124L3565.19,851.148L3565.06,851.173L3564.94,851.199L3564.81,851.227L3564.69,851.256L3564.57,851.286L3564.45,851.318L3564.33,851.351L3564.2,851.386L3564.09,851.421L3563.97,851.458L3563.85,851.496L3563.74,851.536L3563.62,851.576L3563.51,851.618L3563.4,851.661L3563.28,851.705L3563.17,851.751L3563.06,851.797L3562.95,851.845L3562.85,851.894L3562.74,851.944L3562.63,851.996L3562.53,852.048L3562.42,852.101L3562.32,852.155L3562.22,852.212L3562.12,852.268L3562.02,852.326L3561.92,852.384L3561.82,852.444L3561.72,852.507L3561.62,852.568L3561.53,852.631L3561.43,852.695L3561.34,852.759L3561.25,852.827L3561.16,852.894L3561.07,852.961L3560.98,853.03L3560.89,853.101L3560.8,853.171L3560.71,853.244L3560.63,853.317L3560.55,853.389L3560.46,853.466L3560.38,853.541L3560.3,853.616L3560.22,853.695L3560.14,853.774L3560.06,853.853L3559.98,853.932L3559.9,854.016L3559.83,854.098L3559.76,854.179L3559.68,854.263L3559.61,854.348L3559.54,854.432L3559.47,854.517L3559.4,854.606L3559.33,854.696L3559.27,854.782L3559.2,854.872L3559.14,854.963L3559.08,855.055L3559.01,855.149L3558.95,855.241L3558.89,855.333L3558.83,855.426L3558.78,855.525L3558.72,855.621L3558.66,855.715L3558.61,855.814L3558.56,855.913L3558.51,856.011L3558.45,856.114L3558.41,856.213L3558.36,856.315L3558.31,856.417L3558.26,856.521L3558.22,856.626L3558.18,856.728L3558.13,856.835L3558.09,856.944L3558.05,857.05L3558.01,857.157L3557.98,857.266L3557.94,857.376L3557.91,857.487L3557.87,857.599L3557.84,857.709L3557.81,857.82L3557.78,857.936L3557.75,858.054L3557.72,858.169L3557.7,858.281L3557.67,858.398L3557.65,858.517L3557.63,858.637L3557.61,858.755L3557.59,858.873L3557.57,858.998L3557.56,859.119L3557.54,859.242L3557.53,859.366L3557.52,859.492L3557.51,859.619L3557.5,859.743L3557.49,859.869L3557.49,860L3557.48,860.128L3557.48,860.258L3557.48,860.389L3557.48,860.52L3557.48,860.648L3557.49,860.775L3557.49,860.905L3557.5,861.03L3557.51,861.153L3557.52,861.279L3557.53,861.403L3557.54,861.526L3557.56,861.648L3557.57,861.768L3557.59,861.891L3557.61,862.008L3557.63,862.125L3557.65,862.244L3557.67,862.361L3557.7,862.477L3557.72,862.588L3557.75,862.702L3557.78,862.819L3557.81,862.934L3557.84,863.043L3557.87,863.152L3557.9,863.263L3557.94,863.373L3557.97,863.482L3558.01,863.589L3558.05,863.695L3558.09,863.8L3558.13,863.908L3558.17,864.014L3558.21,864.116L3558.26,864.219L3558.31,864.322L3558.35,864.423L3558.4,864.523L3558.45,864.622L3558.5,864.724L3558.55,864.82L3558.6,864.919L3558.66,865.017L3558.71,865.11L3558.77,865.205L3558.83,865.303L3558.88,865.396L3558.94,865.488L3559,865.578L3559.07,865.67L3559.13,865.762L3559.19,865.853L3559.26,865.942L3559.32,866.026L3559.39,866.116L3559.46,866.204L3559.53,866.289L3559.6,866.372L3559.67,866.457L3559.75,866.541L3559.82,866.621L3559.89,866.702L3559.97,866.785L3560.05,866.863L3560.13,866.942L3560.2,867.021L3560.28,867.098L3560.37,867.173L3560.45,867.248L3560.53,867.325L3560.62,867.396L3560.7,867.469L3560.79,867.541L3560.87,867.611L3560.96,867.681L3561.05,867.75L3561.14,867.816L3561.23,867.883L3561.33,867.951L3561.42,868.016L3561.52,868.078L3561.61,868.141L3561.71,868.202L3561.81,868.264L3561.91,868.324L3562,868.382L3562.1,868.439L3562.2,868.496L3562.31,868.552L3562.41,868.606L3562.51,868.659L3562.62,868.711L3562.73,868.762L3562.83,868.812L3562.94,868.861L3563.05,868.909L3563.16,868.955L3563.27,869L3563.39,869.044L3563.5,869.088L3563.61,869.129L3563.73,869.17L3563.84,869.209L3563.96,869.247L3564.08,869.284L3564.2,869.319L3564.32,869.353L3564.44,869.386L3564.56,869.418L3564.68,869.448L3564.8,869.477L3564.93,869.505L3565.05,869.531L3565.18,869.556L3565.31,869.58L3565.44,869.602L3565.57,869.623L3565.7,869.642L3565.83,869.66L3565.96,869.676L3566.09,869.691L3566.23,869.705L3566.36,869.717L3566.5,869.727L3566.63,869.736L3566.77,869.743L3566.91,869.749L3567.05,869.753L3567.19,869.755L3567.33,869.756L3567.48,869.755L3567.62,869.753L3567.76,869.749L3567.9,869.743L3568.03,869.736L3568.17,869.727L3568.31,869.717L3568.44,869.705L3568.58,869.691L3568.71,869.676L3568.84,869.66L3568.97,869.642L3569.1,869.623L3569.23,869.602L3569.36,869.58L3569.49,869.556L3569.61,869.531L3569.74,869.505L3569.86,869.478L3569.99,869.448L3570.11,869.418L3570.23,869.387L3570.35,869.353L3570.47,869.319L3570.59,869.284L3570.71,869.247L3570.83,869.209L3570.94,869.17L3571.06,869.129L3571.17,869.087L3571.28,869.044L3571.39,869.001L3571.51,868.955L3571.62,868.909L3571.72,868.861L3571.84,868.812L3571.94,868.762L3572.05,868.712L3572.15,868.659L3572.26,868.606L3572.36,868.552L3572.46,868.496L3572.57,868.439L3572.67,868.382L3572.76,868.323L3572.86,868.264L3572.96,868.203L3573.06,868.141L3573.15,868.078L3573.25,868.016L3573.34,867.95L3573.43,867.883L3573.52,867.818L3573.62,867.748L3573.7,867.681L3573.79,867.613L3573.88,867.541L3573.97,867.469L3574.05,867.396L3574.14,867.323L3574.22,867.248L3574.3,867.175L3574.39,867.096L3574.46,867.021L3574.54,866.944L3574.62,866.863L3574.7,866.785L3574.78,866.702L3574.85,866.621L3574.92,866.541L3575,866.457L3575.07,866.372L3575.14,866.289L3575.21,866.202L3575.28,866.116L3575.34,866.029L3575.41,865.939L3575.47,865.853L3575.54,865.762L3575.6,865.67L3575.66,865.581L3575.72,865.488L3575.78,865.396L3575.84,865.303L3575.9,865.205L3575.96,865.11L3576.01,865.017L3576.07,864.919L3576.12,864.82L3576.17,864.724L3576.22,864.622L3576.27,864.523L3576.32,864.423L3576.37,864.318L3576.41,864.219L3576.45,864.116L3576.5,864.01L3576.54,863.908L3576.58,863.804L3576.62,863.699L3576.66,863.589L3576.7,863.478L3576.73,863.373L3576.77,863.263L3576.8,863.152L3576.83,863.043L3576.86,862.93L3576.89,862.819L3576.92,862.706L3576.95,862.592L3576.97,862.477L3577,862.361L3577.02,862.244L3577.04,862.125L3577.06,862.004L3577.08,861.887L3577.1,861.772L3577.11,861.648L3577.13,861.526L3577.14,861.403L3577.15,861.279L3577.16,861.157L3577.17,861.03L3577.18,860.905L3577.18,860.775L3577.19,860.648L3577.19,860.52L3577.19,860.389L3577.19,860.258L3577.19,860.128L3577.18,860L3577.18,859.869L3577.17,859.743L3577.16,859.615L3577.15,859.492L3577.14,859.366L3577.13,859.242L3577.11,859.119L3577.1,858.994L3577.08,858.878L3577.06,858.759L3577.04,858.637L3577.02,858.517L3576.99,858.398L3576.97,858.281L3576.94,858.165L3576.92,858.05L3576.89,857.936L3576.86,857.824L3576.83,857.709L3576.8,857.599L3576.76,857.487L3576.73,857.376L3576.69,857.269L3576.65,857.157L3576.62,857.046L3576.58,856.94L3576.53,856.835L3576.49,856.731L3576.45,856.626L3576.41,856.521L3576.36,856.421L3576.31,856.315L3576.26,856.213L3576.22,856.114L3576.16,856.011L3576.11,855.913L3576.06,855.814L3576,855.715L3575.95,855.621L3575.89,855.525L3575.83,855.426L3575.78,855.333L3575.72,855.241L3575.66,855.146L3575.59,855.055L3575.53,854.963L3575.47,854.872L3575.4,854.785L3575.33,854.694L3575.27,854.606L3575.2,854.52L3575.13,854.432L3575.06,854.348L3574.99,854.263L3574.91,854.179L3574.84,854.098L3574.76,854.016L3574.69,853.932L3574.61,853.853L3574.53,853.772L3574.45,853.695L3574.37,853.618L3574.29,853.539L3574.21,853.466L3574.13,853.391L3574.04,853.317L3573.95,853.244L3573.87,853.171L3573.78,853.099L3573.69,853.03L3573.6,852.962L3573.51,852.892L3573.42,852.827L3573.33,852.761L3573.23,852.695L3573.14,852.631L3573.04,852.568L3572.95,852.505L3572.85,852.444L3572.75,852.385L3572.65,852.326L3572.55,852.268L3572.45,852.212L3572.35,852.155L3572.24,852.101L3572.14,852.048L3572.03,851.995L3571.93,851.944L3571.82,851.894L3571.71,851.845L3571.61,851.797L3571.49,851.751L3571.38,851.705L3571.27,851.661L3571.16,851.618L3571.05,851.576L3570.93,851.536L3570.82,851.496L3570.7,851.458L3570.58,851.421L3570.46,851.386L3570.34,851.351L3570.22,851.318L3570.1,851.286L3569.98,851.256L3569.86,851.227L3569.73,851.199L3569.61,851.173L3569.48,851.148L3569.36,851.124L3569.23,851.102L3569.1,851.081L3568.97,851.062L3568.84,851.044L3568.7,851.028L3568.57,851.013L3568.44,850.999L3568.3,850.987L3568.17,850.977L3568.03,850.968L3567.89,850.961L3567.76,850.955L3567.62,850.951L3567.47,850.948L3567.33,850.948L3567.19,850.948Z" style="fill:white;"/>
                <path d="M3567.3,892.256C3586.16,892.256 3600.59,878.543 3600.59,860.502C3600.59,842.311 3586.16,828.522 3567.33,828.522C3548.5,828.522 3534.08,842.311 3534.08,860.502C3534.08,878.543 3548.47,892.256 3567.3,892.256ZM3404.89,884.747C3404.15,885.958 3404.12,887.474 3404.82,888.712C3405.51,889.949 3406.82,890.716 3408.24,890.716C3411.51,890.716 3415.18,890.716 3417.49,890.716C3418.9,890.716 3420.2,889.956 3420.9,888.728C3423.54,884.067 3429.92,872.828 3429.92,872.828C3429.92,872.828 3436.32,884.076 3438.97,888.733C3439.67,889.959 3440.97,890.716 3442.39,890.716C3444.69,890.716 3448.36,890.716 3451.63,890.716C3453.05,890.716 3454.36,889.948 3455.05,888.71C3455.74,887.471 3455.71,885.954 3454.97,884.743C3449.38,875.611 3439.35,859.224 3439.35,859.224C3439.35,859.224 3448.49,844.667 3453.84,836.149C3454.6,834.94 3454.64,833.414 3453.95,832.164C3453.26,830.914 3451.95,830.138 3450.52,830.138C3447.3,830.138 3443.72,830.138 3441.47,830.138C3440.07,830.138 3438.77,830.886 3438.07,832.1C3435.6,836.374 3429.96,846.147 3429.96,846.147C3429.96,846.147 3424.28,836.365 3421.81,832.094C3421.11,830.884 3419.81,830.138 3418.41,830.138C3416.16,830.138 3412.56,830.138 3409.34,830.138C3407.91,830.138 3406.6,830.912 3405.91,832.16C3405.22,833.407 3405.26,834.931 3406.01,836.141C3411.34,844.667 3420.45,859.262 3420.45,859.262C3420.45,859.262 3410.46,875.625 3404.89,884.747ZM3532.87,834.063C3532.87,831.895 3531.11,830.138 3528.95,830.138C3520.4,830.138 3500.17,830.138 3491.63,830.138C3489.46,830.138 3487.7,831.895 3487.7,834.063C3487.7,836.275 3487.7,839.03 3487.7,841.242C3487.7,842.283 3488.11,843.281 3488.85,844.017C3489.59,844.753 3490.58,845.166 3491.63,845.166C3495.93,845.166 3502.24,845.166 3502.24,845.166L3502.24,886.792C3502.24,888.959 3504,890.716 3506.17,890.716C3508.68,890.716 3511.93,890.716 3514.44,890.716C3516.61,890.716 3518.36,888.959 3518.36,886.792C3518.36,875.742 3518.36,845.166 3518.36,845.166L3528.95,845.166C3529.99,845.166 3530.98,844.753 3531.72,844.017C3532.46,843.281 3532.87,842.283 3532.87,841.242C3532.87,839.03 3532.87,836.275 3532.87,834.063ZM3350.75,834.063C3350.75,831.895 3348.99,830.138 3346.82,830.138C3338.28,830.138 3318.05,830.138 3309.5,830.138C3307.34,830.138 3305.58,831.895 3305.58,834.063C3305.58,836.275 3305.58,839.03 3305.58,841.242C3305.58,842.283 3305.99,843.281 3306.73,844.017C3307.47,844.753 3308.46,845.166 3309.5,845.166C3313.81,845.166 3320.12,845.166 3320.12,845.166L3320.12,886.792C3320.12,888.959 3321.88,890.716 3324.05,890.716C3326.56,890.716 3329.81,890.716 3332.32,890.716C3334.49,890.716 3336.24,888.959 3336.24,886.792C3336.24,875.742 3336.24,845.166 3336.24,845.166L3346.82,845.166C3347.87,845.166 3348.86,844.753 3349.6,844.017C3350.34,843.281 3350.75,842.283 3350.75,841.242C3350.75,839.03 3350.75,836.275 3350.75,834.063ZM3464.78,886.792C3464.78,888.959 3466.53,890.716 3468.7,890.716L3476.93,890.716C3479.1,890.716 3480.86,888.959 3480.86,886.792C3480.86,875.838 3480.86,845.017 3480.86,834.063C3480.86,831.895 3479.1,830.138 3476.93,830.138C3474.43,830.138 3471.2,830.138 3468.7,830.138C3466.53,830.138 3464.78,831.895 3464.78,834.063C3464.78,845.017 3464.78,875.838 3464.78,886.792ZM3392.94,845.091C3395.1,845.091 3396.86,843.334 3396.86,841.167C3396.86,838.976 3396.86,836.254 3396.86,834.063C3396.86,831.895 3395.1,830.138 3392.94,830.138C3385.41,830.138 3369.04,830.138 3361.52,830.138C3359.35,830.138 3357.59,831.895 3357.59,834.063C3357.59,845.017 3357.59,875.838 3357.59,886.792C3357.59,888.959 3359.35,890.716 3361.52,890.716C3369.04,890.716 3385.41,890.716 3392.94,890.716C3395.1,890.716 3396.86,888.959 3396.86,886.792C3396.86,884.569 3396.86,881.797 3396.86,879.574C3396.86,877.407 3395.1,875.65 3392.94,875.65L3373.49,875.65L3373.49,866.964L3388.8,866.964C3389.84,866.964 3390.84,866.551 3391.58,865.815C3392.31,865.079 3392.73,864.081 3392.73,863.04C3392.73,861.288 3392.73,859.228 3392.73,857.476C3392.73,856.435 3392.31,855.437 3391.58,854.701C3390.84,853.965 3389.84,853.552 3388.8,853.552C3383.18,853.552 3373.49,853.552 3373.49,853.552L3373.49,845.091L3392.94,845.091ZM3567.33,876.89C3557.71,876.89 3550.35,869.711 3550.35,860.39C3550.35,851.03 3557.71,843.814 3567.33,843.814C3576.96,843.814 3584.32,851.03 3584.32,860.39C3584.32,869.711 3576.96,876.89 3567.33,876.89Z" style="fill:url(#_Linear1);fill-rule:nonzero;"/>
            </g>
        </g>
    </g>
    <defs>
        <linearGradient id="_Linear1" x1="0" y1="0" x2="1" y2="0" gradientUnits="userSpaceOnUse" gradientTransform="matrix(295.012,-0.0375821,0.00811917,63.734,3305.58,860.427)"><stop offset="0" style="stop-color:black;stop-opacity:1"/><stop offset="0.24" style="stop-color:rgb(8,18,6);stop-opacity:1"/><stop offset="0.44" style="stop-color:rgb(35,85,27);stop-opacity:1"/><stop offset="0.64" style="stop-color:rgb(255,186,10);stop-opacity:1"/><stop offset="0.83" style="stop-color:rgb(252,146,30);stop-opacity:1"/><stop offset="1" style="stop-color:rgb(244,18,95);stop-opacity:1"/></linearGradient>
    </defs>
</svg>
